<?xml version="1.0" encoding="UTF-8" standalone="no"?>
<svg
   xmlns:dc="http://purl.org/dc/elements/1.1/"
   xmlns:cc="http://creativecommons.org/ns#"
   xmlns:rdf="http://www.w3.org/1999/02/22-rdf-syntax-ns#"
   xmlns:svg="http://www.w3.org/2000/svg"
   xmlns="http://www.w3.org/2000/svg"
   version="1.1"
   id="svg6651"
   height="91.370995"
   width="433.2858">
  <defs
     id="defs6653">
    <linearGradient
       id="linearGradient2666"
       spreadMethod="pad"
       gradientTransform="matrix(112.4086,0,0,-153.75211,147.78174,524.15259)"
       gradientUnits="userSpaceOnUse"
       y2="0"
       x2="1"
       y1="0"
       x1="0.5">
      <stop
         id="stop2668"
         offset="0"
         style="stop-opacity:1;stop-color:#00a54e" />
      <stop
         id="stop2670"
         offset="1"
         style="stop-opacity:1;stop-color:#00914c" />
    </linearGradient>
    <linearGradient
       id="linearGradient2656"
       spreadMethod="pad"
       gradientTransform="matrix(112.4086,0,0,-153.75211,147.78174,524.15259)"
       gradientUnits="userSpaceOnUse"
       y2="0"
       x2="0.5"
       y1="0"
       x1="0">
      <stop
         id="stop2658"
         offset="0"
         style="stop-opacity:1;stop-color:#63c08b" />
      <stop
         id="stop2660"
         offset="1"
         style="stop-opacity:1;stop-color:#00a54e" />
    </linearGradient>
    <linearGradient
       id="linearGradient2646"
       spreadMethod="pad"
       gradientTransform="matrix(106.2976,0,0,-142.22211,196.85635,533.95441)"
       gradientUnits="userSpaceOnUse"
       y2="0"
       x2="1"
       y1="0"
       x1="0.5">
      <stop
         id="stop2648"
         offset="0"
         style="stop-opacity:1;stop-color:#2f348f" />
      <stop
         id="stop2650"
         offset="1"
         style="stop-opacity:1;stop-color:#5b58a6" />
    </linearGradient>
    <linearGradient
       id="linearGradient2636"
       spreadMethod="pad"
       gradientTransform="matrix(106.2976,0,0,-142.22211,196.85635,533.95441)"
       gradientUnits="userSpaceOnUse"
       y2="0"
       x2="0.5"
       y1="0"
       x1="0">
      <stop
         id="stop2638"
         offset="0"
         style="stop-opacity:1;stop-color:#474475" />
      <stop
         id="stop2640"
         offset="1"
         style="stop-opacity:1;stop-color:#2f348f" />
    </linearGradient>
    <linearGradient
       id="linearGradient2626"
       spreadMethod="pad"
       gradientTransform="matrix(118.432,0,0,-131.52319,94.966858,559.60858)"
       gradientUnits="userSpaceOnUse"
       y2="0"
       x2="1"
       y1="0"
       x1="0.5">
      <stop
         id="stop2628"
         offset="0"
         style="stop-opacity:1;stop-color:#2f348f" />
      <stop
         id="stop2630"
         offset="1"
         style="stop-opacity:1;stop-color:#5b58a6" />
    </linearGradient>
    <linearGradient
       id="linearGradient2616"
       spreadMethod="pad"
       gradientTransform="matrix(118.432,0,0,-131.52319,94.966858,559.60858)"
       gradientUnits="userSpaceOnUse"
       y2="0"
       x2="0.5"
       y1="0"
       x1="0">
      <stop
         id="stop2618"
         offset="0"
         style="stop-opacity:1;stop-color:#474475" />
      <stop
         id="stop2620"
         offset="1"
         style="stop-opacity:1;stop-color:#2f348f" />
    </linearGradient>
    <linearGradient
       id="linearGradient2606"
       spreadMethod="pad"
       gradientTransform="matrix(13.6375,0,0,-23.0371,934.80713,436.35349)"
       gradientUnits="userSpaceOnUse"
       y2="0"
       x2="1"
       y1="0"
       x1="0.5">
      <stop
         id="stop2608"
         offset="0"
         style="stop-opacity:1;stop-color:#2f348f" />
      <stop
         id="stop2610"
         offset="1"
         style="stop-opacity:1;stop-color:#5b58a6" />
    </linearGradient>
    <linearGradient
       id="linearGradient2596"
       spreadMethod="pad"
       gradientTransform="matrix(13.6375,0,0,-23.0371,934.80713,436.35349)"
       gradientUnits="userSpaceOnUse"
       y2="0"
       x2="0.5"
       y1="0"
       x1="0">
      <stop
         id="stop2598"
         offset="0"
         style="stop-opacity:1;stop-color:#474475" />
      <stop
         id="stop2600"
         offset="1"
         style="stop-opacity:1;stop-color:#2f348f" />
    </linearGradient>
    <linearGradient
       id="linearGradient2586"
       spreadMethod="pad"
       gradientTransform="matrix(7.6029,0,0,-28.105,927.41736,441.72119)"
       gradientUnits="userSpaceOnUse"
       y2="0"
       x2="1"
       y1="0"
       x1="0.5">
      <stop
         id="stop2588"
         offset="0"
         style="stop-opacity:1;stop-color:#2f348f" />
      <stop
         id="stop2590"
         offset="1"
         style="stop-opacity:1;stop-color:#5b58a6" />
    </linearGradient>
    <linearGradient
       id="linearGradient2576"
       spreadMethod="pad"
       gradientTransform="matrix(7.6029,0,0,-28.105,927.41736,441.72119)"
       gradientUnits="userSpaceOnUse"
       y2="0"
       x2="0.5"
       y1="0"
       x1="0">
      <stop
         id="stop2578"
         offset="0"
         style="stop-opacity:1;stop-color:#474475" />
      <stop
         id="stop2580"
         offset="1"
         style="stop-opacity:1;stop-color:#2f348f" />
    </linearGradient>
    <linearGradient
       id="linearGradient2566"
       spreadMethod="pad"
       gradientTransform="matrix(17.6709,0,0,-23.0039,907.99182,436.35349)"
       gradientUnits="userSpaceOnUse"
       y2="0"
       x2="1"
       y1="0"
       x1="0.5">
      <stop
         id="stop2568"
         offset="0"
         style="stop-opacity:1;stop-color:#2f348f" />
      <stop
         id="stop2570"
         offset="1"
         style="stop-opacity:1;stop-color:#5b58a6" />
    </linearGradient>
    <linearGradient
       id="linearGradient2556"
       spreadMethod="pad"
       gradientTransform="matrix(17.6709,0,0,-23.0039,907.99182,436.35349)"
       gradientUnits="userSpaceOnUse"
       y2="0"
       x2="0.5"
       y1="0"
       x1="0">
      <stop
         id="stop2558"
         offset="0"
         style="stop-opacity:1;stop-color:#474475" />
      <stop
         id="stop2560"
         offset="1"
         style="stop-opacity:1;stop-color:#2f348f" />
    </linearGradient>
    <linearGradient
       id="linearGradient2546"
       spreadMethod="pad"
       gradientTransform="matrix(17.670401,0,0,-23.0039,889.25256,436.35349)"
       gradientUnits="userSpaceOnUse"
       y2="0"
       x2="1"
       y1="0"
       x1="0.5">
      <stop
         id="stop2548"
         offset="0"
         style="stop-opacity:1;stop-color:#2f348f" />
      <stop
         id="stop2550"
         offset="1"
         style="stop-opacity:1;stop-color:#5b58a6" />
    </linearGradient>
    <linearGradient
       id="linearGradient2536"
       spreadMethod="pad"
       gradientTransform="matrix(17.670401,0,0,-23.0039,889.25256,436.35349)"
       gradientUnits="userSpaceOnUse"
       y2="0"
       x2="0.5"
       y1="0"
       x1="0">
      <stop
         id="stop2538"
         offset="0"
         style="stop-opacity:1;stop-color:#474475" />
      <stop
         id="stop2540"
         offset="1"
         style="stop-opacity:1;stop-color:#2f348f" />
    </linearGradient>
    <linearGradient
       id="linearGradient2526"
       spreadMethod="pad"
       gradientTransform="matrix(17.2458,0,0,-27.8384,870.40375,441.65479)"
       gradientUnits="userSpaceOnUse"
       y2="0"
       x2="1"
       y1="0"
       x1="0.5">
      <stop
         id="stop2528"
         offset="0"
         style="stop-opacity:1;stop-color:#2f348f" />
      <stop
         id="stop2530"
         offset="1"
         style="stop-opacity:1;stop-color:#5b58a6" />
    </linearGradient>
    <linearGradient
       id="linearGradient2516"
       spreadMethod="pad"
       gradientTransform="matrix(17.2458,0,0,-27.8384,870.40375,441.65479)"
       gradientUnits="userSpaceOnUse"
       y2="0"
       x2="0.5"
       y1="0"
       x1="0">
      <stop
         id="stop2518"
         offset="0"
         style="stop-opacity:1;stop-color:#474475" />
      <stop
         id="stop2520"
         offset="1"
         style="stop-opacity:1;stop-color:#2f348f" />
    </linearGradient>
    <linearGradient
       id="linearGradient2506"
       spreadMethod="pad"
       gradientTransform="matrix(14.8021,0,0,-23.0039,856.74133,436.32028)"
       gradientUnits="userSpaceOnUse"
       y2="0"
       x2="1"
       y1="0"
       x1="0.5">
      <stop
         id="stop2508"
         offset="0"
         style="stop-opacity:1;stop-color:#2f348f" />
      <stop
         id="stop2510"
         offset="1"
         style="stop-opacity:1;stop-color:#5b58a6" />
    </linearGradient>
    <linearGradient
       id="linearGradient2496"
       spreadMethod="pad"
       gradientTransform="matrix(14.8021,0,0,-23.0039,856.74133,436.32028)"
       gradientUnits="userSpaceOnUse"
       y2="0"
       x2="0.5"
       y1="0"
       x1="0">
      <stop
         id="stop2498"
         offset="0"
         style="stop-opacity:1;stop-color:#474475" />
      <stop
         id="stop2500"
         offset="1"
         style="stop-opacity:1;stop-color:#2f348f" />
    </linearGradient>
    <linearGradient
       id="linearGradient2486"
       spreadMethod="pad"
       gradientTransform="matrix(17.3491,0,0,-28.471701,838.97925,441.68799)"
       gradientUnits="userSpaceOnUse"
       y2="0"
       x2="1"
       y1="0"
       x1="0.5">
      <stop
         id="stop2488"
         offset="0"
         style="stop-opacity:1;stop-color:#2f348f" />
      <stop
         id="stop2490"
         offset="1"
         style="stop-opacity:1;stop-color:#5b58a6" />
    </linearGradient>
    <linearGradient
       id="linearGradient2476"
       spreadMethod="pad"
       gradientTransform="matrix(17.3491,0,0,-28.471701,838.97925,441.68799)"
       gradientUnits="userSpaceOnUse"
       y2="0"
       x2="0.5"
       y1="0"
       x1="0">
      <stop
         id="stop2478"
         offset="0"
         style="stop-opacity:1;stop-color:#474475" />
      <stop
         id="stop2480"
         offset="1"
         style="stop-opacity:1;stop-color:#2f348f" />
    </linearGradient>
    <linearGradient
       id="linearGradient2466"
       spreadMethod="pad"
       gradientTransform="matrix(18.323299,0,0,-30.938999,812.24225,436.32028)"
       gradientUnits="userSpaceOnUse"
       y2="0"
       x2="1"
       y1="0"
       x1="0.5">
      <stop
         id="stop2468"
         offset="0"
         style="stop-opacity:1;stop-color:#2f348f" />
      <stop
         id="stop2470"
         offset="1"
         style="stop-opacity:1;stop-color:#5b58a6" />
    </linearGradient>
    <linearGradient
       id="linearGradient2456"
       spreadMethod="pad"
       gradientTransform="matrix(18.323299,0,0,-30.938999,812.24225,436.32028)"
       gradientUnits="userSpaceOnUse"
       y2="0"
       x2="0.5"
       y1="0"
       x1="0">
      <stop
         id="stop2458"
         offset="0"
         style="stop-opacity:1;stop-color:#474475" />
      <stop
         id="stop2460"
         offset="1"
         style="stop-opacity:1;stop-color:#2f348f" />
    </linearGradient>
    <linearGradient
       id="linearGradient2446"
       spreadMethod="pad"
       gradientTransform="matrix(17.1917,0,0,-22.570801,794.76544,436.42038)"
       gradientUnits="userSpaceOnUse"
       y2="0"
       x2="1"
       y1="0"
       x1="0.5">
      <stop
         id="stop2448"
         offset="0"
         style="stop-opacity:1;stop-color:#2f348f" />
      <stop
         id="stop2450"
         offset="1"
         style="stop-opacity:1;stop-color:#5b58a6" />
    </linearGradient>
    <linearGradient
       id="linearGradient2436"
       spreadMethod="pad"
       gradientTransform="matrix(17.1917,0,0,-22.570801,794.76544,436.42038)"
       gradientUnits="userSpaceOnUse"
       y2="0"
       x2="0.5"
       y1="0"
       x1="0">
      <stop
         id="stop2438"
         offset="0"
         style="stop-opacity:1;stop-color:#474475" />
      <stop
         id="stop2440"
         offset="1"
         style="stop-opacity:1;stop-color:#2f348f" />
    </linearGradient>
    <linearGradient
       id="linearGradient2426"
       spreadMethod="pad"
       gradientTransform="matrix(7.65945,0,0,-28.438499,787.16003,442.28809)"
       gradientUnits="userSpaceOnUse"
       y2="0"
       x2="1"
       y1="0"
       x1="0.5">
      <stop
         id="stop2428"
         offset="0"
         style="stop-opacity:1;stop-color:#2f348f" />
      <stop
         id="stop2430"
         offset="1"
         style="stop-opacity:1;stop-color:#5b58a6" />
    </linearGradient>
    <linearGradient
       id="linearGradient2416"
       spreadMethod="pad"
       gradientTransform="matrix(7.65945,0,0,-28.438499,787.16003,442.28809)"
       gradientUnits="userSpaceOnUse"
       y2="0"
       x2="0.5"
       y1="0"
       x1="0">
      <stop
         id="stop2418"
         offset="0"
         style="stop-opacity:1;stop-color:#474475" />
      <stop
         id="stop2420"
         offset="1"
         style="stop-opacity:1;stop-color:#2f348f" />
    </linearGradient>
    <linearGradient
       id="linearGradient2406"
       spreadMethod="pad"
       gradientTransform="matrix(12.26,0,0,-22.637199,776.01038,436.48679)"
       gradientUnits="userSpaceOnUse"
       y2="0"
       x2="1"
       y1="0"
       x1="0.5">
      <stop
         id="stop2408"
         offset="0"
         style="stop-opacity:1;stop-color:#2f348f" />
      <stop
         id="stop2410"
         offset="1"
         style="stop-opacity:1;stop-color:#5b58a6" />
    </linearGradient>
    <linearGradient
       id="linearGradient2396"
       spreadMethod="pad"
       gradientTransform="matrix(12.26,0,0,-22.637199,776.01038,436.48679)"
       gradientUnits="userSpaceOnUse"
       y2="0"
       x2="0.5"
       y1="0"
       x1="0">
      <stop
         id="stop2398"
         offset="0"
         style="stop-opacity:1;stop-color:#474475" />
      <stop
         id="stop2400"
         offset="1"
         style="stop-opacity:1;stop-color:#2f348f" />
    </linearGradient>
    <linearGradient
       id="linearGradient2386"
       spreadMethod="pad"
       gradientTransform="matrix(15.6699,0,0,-23.137699,760.10907,436.42038)"
       gradientUnits="userSpaceOnUse"
       y2="0"
       x2="1"
       y1="0"
       x1="0.5">
      <stop
         id="stop2388"
         offset="0"
         style="stop-opacity:1;stop-color:#2f348f" />
      <stop
         id="stop2390"
         offset="1"
         style="stop-opacity:1;stop-color:#5b58a6" />
    </linearGradient>
    <linearGradient
       id="linearGradient2376"
       spreadMethod="pad"
       gradientTransform="matrix(15.6699,0,0,-23.137699,760.10907,436.42038)"
       gradientUnits="userSpaceOnUse"
       y2="0"
       x2="0.5"
       y1="0"
       x1="0">
      <stop
         id="stop2378"
         offset="0"
         style="stop-opacity:1;stop-color:#474475" />
      <stop
         id="stop2380"
         offset="1"
         style="stop-opacity:1;stop-color:#2f348f" />
    </linearGradient>
    <linearGradient
       id="linearGradient2366"
       spreadMethod="pad"
       gradientTransform="matrix(22.0002,0,0,-22.104,736.51984,435.92038)"
       gradientUnits="userSpaceOnUse"
       y2="0"
       x2="1"
       y1="0"
       x1="0.5">
      <stop
         id="stop2368"
         offset="0"
         style="stop-opacity:1;stop-color:#2f348f" />
      <stop
         id="stop2370"
         offset="1"
         style="stop-opacity:1;stop-color:#5b58a6" />
    </linearGradient>
    <linearGradient
       id="linearGradient2356"
       spreadMethod="pad"
       gradientTransform="matrix(22.0002,0,0,-22.104,736.51984,435.92038)"
       gradientUnits="userSpaceOnUse"
       y2="0"
       x2="0.5"
       y1="0"
       x1="0">
      <stop
         id="stop2358"
         offset="0"
         style="stop-opacity:1;stop-color:#474475" />
      <stop
         id="stop2360"
         offset="1"
         style="stop-opacity:1;stop-color:#2f348f" />
    </linearGradient>
    <linearGradient
       id="linearGradient2346"
       spreadMethod="pad"
       gradientTransform="matrix(17.670401,0,0,-23.0039,716.16077,436.35349)"
       gradientUnits="userSpaceOnUse"
       y2="0"
       x2="1"
       y1="0"
       x1="0.5">
      <stop
         id="stop2348"
         offset="0"
         style="stop-opacity:1;stop-color:#2f348f" />
      <stop
         id="stop2350"
         offset="1"
         style="stop-opacity:1;stop-color:#5b58a6" />
    </linearGradient>
    <linearGradient
       id="linearGradient2336"
       spreadMethod="pad"
       gradientTransform="matrix(17.670401,0,0,-23.0039,716.16077,436.35349)"
       gradientUnits="userSpaceOnUse"
       y2="0"
       x2="0.5"
       y1="0"
       x1="0">
      <stop
         id="stop2338"
         offset="0"
         style="stop-opacity:1;stop-color:#474475" />
      <stop
         id="stop2340"
         offset="1"
         style="stop-opacity:1;stop-color:#2f348f" />
    </linearGradient>
    <linearGradient
       id="linearGradient2326"
       spreadMethod="pad"
       gradientTransform="matrix(19.0576,0,0,-31.1392,696.16718,436.32028)"
       gradientUnits="userSpaceOnUse"
       y2="0"
       x2="1"
       y1="0"
       x1="0.5">
      <stop
         id="stop2328"
         offset="0"
         style="stop-opacity:1;stop-color:#2f348f" />
      <stop
         id="stop2330"
         offset="1"
         style="stop-opacity:1;stop-color:#5b58a6" />
    </linearGradient>
    <linearGradient
       id="linearGradient2316"
       spreadMethod="pad"
       gradientTransform="matrix(19.0576,0,0,-31.1392,696.16718,436.32028)"
       gradientUnits="userSpaceOnUse"
       y2="0"
       x2="0.5"
       y1="0"
       x1="0">
      <stop
         id="stop2318"
         offset="0"
         style="stop-opacity:1;stop-color:#474475" />
      <stop
         id="stop2320"
         offset="1"
         style="stop-opacity:1;stop-color:#2f348f" />
    </linearGradient>
    <linearGradient
       id="linearGradient2306"
       spreadMethod="pad"
       gradientTransform="matrix(25.129299,0,0,-22.570801,671.38794,436.42038)"
       gradientUnits="userSpaceOnUse"
       y2="0"
       x2="1"
       y1="0"
       x1="0.5">
      <stop
         id="stop2308"
         offset="0"
         style="stop-opacity:1;stop-color:#2f348f" />
      <stop
         id="stop2310"
         offset="1"
         style="stop-opacity:1;stop-color:#5b58a6" />
    </linearGradient>
    <linearGradient
       id="linearGradient2296"
       spreadMethod="pad"
       gradientTransform="matrix(25.129299,0,0,-22.570801,671.38794,436.42038)"
       gradientUnits="userSpaceOnUse"
       y2="0"
       x2="0.5"
       y1="0"
       x1="0">
      <stop
         id="stop2298"
         offset="0"
         style="stop-opacity:1;stop-color:#474475" />
      <stop
         id="stop2300"
         offset="1"
         style="stop-opacity:1;stop-color:#2f348f" />
    </linearGradient>
    <linearGradient
       id="linearGradient2286"
       spreadMethod="pad"
       gradientTransform="matrix(17.0089,0,0,-27.5718,654.80963,441.22119)"
       gradientUnits="userSpaceOnUse"
       y2="0"
       x2="1"
       y1="0"
       x1="0.5">
      <stop
         id="stop2288"
         offset="0"
         style="stop-opacity:1;stop-color:#2f348f" />
      <stop
         id="stop2290"
         offset="1"
         style="stop-opacity:1;stop-color:#5b58a6" />
    </linearGradient>
    <linearGradient
       id="linearGradient2276"
       spreadMethod="pad"
       gradientTransform="matrix(17.0089,0,0,-27.5718,654.80963,441.22119)"
       gradientUnits="userSpaceOnUse"
       y2="0"
       x2="0.5"
       y1="0"
       x1="0">
      <stop
         id="stop2278"
         offset="0"
         style="stop-opacity:1;stop-color:#474475" />
      <stop
         id="stop2280"
         offset="1"
         style="stop-opacity:1;stop-color:#2f348f" />
    </linearGradient>
    <linearGradient
       id="linearGradient2266"
       spreadMethod="pad"
       gradientTransform="matrix(33.901699,0,0,-56.372101,914.54297,517.0835)"
       gradientUnits="userSpaceOnUse"
       y2="0"
       x2="1"
       y1="0"
       x1="0.5">
      <stop
         id="stop2268"
         offset="0"
         style="stop-opacity:1;stop-color:#00a54e" />
      <stop
         id="stop2270"
         offset="1"
         style="stop-opacity:1;stop-color:#00914c" />
    </linearGradient>
    <linearGradient
       id="linearGradient2256"
       spreadMethod="pad"
       gradientTransform="matrix(33.901699,0,0,-56.372101,914.54297,517.0835)"
       gradientUnits="userSpaceOnUse"
       y2="0"
       x2="0.5"
       y1="0"
       x1="0">
      <stop
         id="stop2258"
         offset="0"
         style="stop-opacity:1;stop-color:#63c08b" />
      <stop
         id="stop2260"
         offset="1"
         style="stop-opacity:1;stop-color:#00a54e" />
    </linearGradient>
    <linearGradient
       id="linearGradient2246"
       spreadMethod="pad"
       gradientTransform="matrix(43.3311,0,0,-57.777302,870.57416,516.896)"
       gradientUnits="userSpaceOnUse"
       y2="0"
       x2="1"
       y1="0"
       x1="0.5">
      <stop
         id="stop2248"
         offset="0"
         style="stop-opacity:1;stop-color:#00a54e" />
      <stop
         id="stop2250"
         offset="1"
         style="stop-opacity:1;stop-color:#00914c" />
    </linearGradient>
    <linearGradient
       id="linearGradient2236"
       spreadMethod="pad"
       gradientTransform="matrix(43.3311,0,0,-57.777302,870.57416,516.896)"
       gradientUnits="userSpaceOnUse"
       y2="0"
       x2="0.5"
       y1="0"
       x1="0">
      <stop
         id="stop2238"
         offset="0"
         style="stop-opacity:1;stop-color:#63c08b" />
      <stop
         id="stop2240"
         offset="1"
         style="stop-opacity:1;stop-color:#00a54e" />
    </linearGradient>
    <linearGradient
       id="linearGradient2226"
       spreadMethod="pad"
       gradientTransform="matrix(44.614101,0,0,-54.685501,826.09045,515.30319)"
       gradientUnits="userSpaceOnUse"
       y2="0"
       x2="1"
       y1="0"
       x1="0.5">
      <stop
         id="stop2228"
         offset="0"
         style="stop-opacity:1;stop-color:#00a54e" />
      <stop
         id="stop2230"
         offset="1"
         style="stop-opacity:1;stop-color:#00914c" />
    </linearGradient>
    <linearGradient
       id="linearGradient2216"
       spreadMethod="pad"
       gradientTransform="matrix(44.614101,0,0,-54.685501,826.09045,515.30319)"
       gradientUnits="userSpaceOnUse"
       y2="0"
       x2="0.5"
       y1="0"
       x1="0">
      <stop
         id="stop2218"
         offset="0"
         style="stop-opacity:1;stop-color:#63c08b" />
      <stop
         id="stop2220"
         offset="1"
         style="stop-opacity:1;stop-color:#00a54e" />
    </linearGradient>
    <linearGradient
       id="linearGradient2206"
       spreadMethod="pad"
       gradientTransform="matrix(33.901699,0,0,-56.372101,791.17914,517.0835)"
       gradientUnits="userSpaceOnUse"
       y2="0"
       x2="1"
       y1="0"
       x1="0.5">
      <stop
         id="stop2208"
         offset="0"
         style="stop-opacity:1;stop-color:#00a54e" />
      <stop
         id="stop2210"
         offset="1"
         style="stop-opacity:1;stop-color:#00914c" />
    </linearGradient>
    <linearGradient
       id="linearGradient2196"
       spreadMethod="pad"
       gradientTransform="matrix(33.901699,0,0,-56.372101,791.17914,517.0835)"
       gradientUnits="userSpaceOnUse"
       y2="0"
       x2="0.5"
       y1="0"
       x1="0">
      <stop
         id="stop2198"
         offset="0"
         style="stop-opacity:1;stop-color:#63c08b" />
      <stop
         id="stop2200"
         offset="1"
         style="stop-opacity:1;stop-color:#00a54e" />
    </linearGradient>
    <linearGradient
       id="linearGradient2186"
       spreadMethod="pad"
       gradientTransform="matrix(43.3311,0,0,-57.777302,747.21094,516.896)"
       gradientUnits="userSpaceOnUse"
       y2="0"
       x2="1"
       y1="0"
       x1="0.5">
      <stop
         id="stop2188"
         offset="0"
         style="stop-opacity:1;stop-color:#00a54e" />
      <stop
         id="stop2190"
         offset="1"
         style="stop-opacity:1;stop-color:#00914c" />
    </linearGradient>
    <linearGradient
       id="linearGradient2176"
       spreadMethod="pad"
       gradientTransform="matrix(43.3311,0,0,-57.777302,747.21094,516.896)"
       gradientUnits="userSpaceOnUse"
       y2="0"
       x2="0.5"
       y1="0"
       x1="0">
      <stop
         id="stop2178"
         offset="0"
         style="stop-opacity:1;stop-color:#63c08b" />
      <stop
         id="stop2180"
         offset="1"
         style="stop-opacity:1;stop-color:#00a54e" />
    </linearGradient>
    <linearGradient
       id="linearGradient2166"
       spreadMethod="pad"
       gradientTransform="matrix(47.9744,0,0,-72.767601,697.91315,531.6987)"
       gradientUnits="userSpaceOnUse"
       y2="0"
       x2="1"
       y1="0"
       x1="0.5">
      <stop
         id="stop2168"
         offset="0"
         style="stop-opacity:1;stop-color:#00a54e" />
      <stop
         id="stop2170"
         offset="1"
         style="stop-opacity:1;stop-color:#00914c" />
    </linearGradient>
    <linearGradient
       id="linearGradient2156"
       spreadMethod="pad"
       gradientTransform="matrix(47.9744,0,0,-72.767601,697.91315,531.6987)"
       gradientUnits="userSpaceOnUse"
       y2="0"
       x2="0.5"
       y1="0"
       x1="0">
      <stop
         id="stop2158"
         offset="0"
         style="stop-opacity:1;stop-color:#63c08b" />
      <stop
         id="stop2160"
         offset="1"
         style="stop-opacity:1;stop-color:#00a54e" />
    </linearGradient>
    <linearGradient
       id="linearGradient2146"
       spreadMethod="pad"
       gradientTransform="matrix(21.023399,0,0,-71.737297,653.03516,531.79239)"
       gradientUnits="userSpaceOnUse"
       y2="0"
       x2="1"
       y1="0"
       x1="0.5">
      <stop
         id="stop2148"
         offset="0"
         style="stop-opacity:1;stop-color:#00a54e" />
      <stop
         id="stop2150"
         offset="1"
         style="stop-opacity:1;stop-color:#00914c" />
    </linearGradient>
    <linearGradient
       id="linearGradient2136"
       spreadMethod="pad"
       gradientTransform="matrix(21.023399,0,0,-71.737297,653.03516,531.79239)"
       gradientUnits="userSpaceOnUse"
       y2="0"
       x2="0.5"
       y1="0"
       x1="0">
      <stop
         id="stop2138"
         offset="0"
         style="stop-opacity:1;stop-color:#63c08b" />
      <stop
         id="stop2140"
         offset="1"
         style="stop-opacity:1;stop-color:#00a54e" />
    </linearGradient>
    <linearGradient
       id="linearGradient2126"
       spreadMethod="pad"
       gradientTransform="matrix(48.862801,0,0,-57.402801,599.32227,516.7085)"
       gradientUnits="userSpaceOnUse"
       y2="0"
       x2="1"
       y1="0"
       x1="0.5">
      <stop
         id="stop2128"
         offset="0"
         style="stop-opacity:1;stop-color:#00a54e" />
      <stop
         id="stop2130"
         offset="1"
         style="stop-opacity:1;stop-color:#00914c" />
    </linearGradient>
    <linearGradient
       id="linearGradient2116"
       spreadMethod="pad"
       gradientTransform="matrix(48.862801,0,0,-57.402801,599.32227,516.7085)"
       gradientUnits="userSpaceOnUse"
       y2="0"
       x2="0.5"
       y1="0"
       x1="0">
      <stop
         id="stop2118"
         offset="0"
         style="stop-opacity:1;stop-color:#63c08b" />
      <stop
         id="stop2120"
         offset="1"
         style="stop-opacity:1;stop-color:#00a54e" />
    </linearGradient>
    <linearGradient
       id="linearGradient2106"
       spreadMethod="pad"
       gradientTransform="matrix(48.862801,0,0,-57.402801,547.50586,516.7085)"
       gradientUnits="userSpaceOnUse"
       y2="0"
       x2="1"
       y1="0"
       x1="0.5">
      <stop
         id="stop2108"
         offset="0"
         style="stop-opacity:1;stop-color:#00a54e" />
      <stop
         id="stop2110"
         offset="1"
         style="stop-opacity:1;stop-color:#00914c" />
    </linearGradient>
    <linearGradient
       id="linearGradient2096"
       spreadMethod="pad"
       gradientTransform="matrix(48.862801,0,0,-57.402801,547.50586,516.7085)"
       gradientUnits="userSpaceOnUse"
       y2="0"
       x2="0.5"
       y1="0"
       x1="0">
      <stop
         id="stop2098"
         offset="0"
         style="stop-opacity:1;stop-color:#63c08b" />
      <stop
         id="stop2100"
         offset="1"
         style="stop-opacity:1;stop-color:#00a54e" />
    </linearGradient>
    <linearGradient
       id="linearGradient2086"
       spreadMethod="pad"
       gradientTransform="matrix(53.838799,0,0,-72.955101,498.36276,531.97989)"
       gradientUnits="userSpaceOnUse"
       y2="0"
       x2="1"
       y1="0"
       x1="0.5">
      <stop
         id="stop2088"
         offset="0"
         style="stop-opacity:1;stop-color:#00a54e" />
      <stop
         id="stop2090"
         offset="1"
         style="stop-opacity:1;stop-color:#00914c" />
    </linearGradient>
    <linearGradient
       id="linearGradient2076"
       spreadMethod="pad"
       gradientTransform="matrix(53.838799,0,0,-72.955101,498.36276,531.97989)"
       gradientUnits="userSpaceOnUse"
       y2="0"
       x2="0.5"
       y1="0"
       x1="0">
      <stop
         id="stop2078"
         offset="0"
         style="stop-opacity:1;stop-color:#63c08b" />
      <stop
         id="stop2080"
         offset="1"
         style="stop-opacity:1;stop-color:#00a54e" />
    </linearGradient>
    <linearGradient
       id="linearGradient2066"
       spreadMethod="pad"
       gradientTransform="matrix(37.710899,0,0,-57.496101,457.07285,516.7085)"
       gradientUnits="userSpaceOnUse"
       y2="0"
       x2="1"
       y1="0"
       x1="0.5">
      <stop
         id="stop2068"
         offset="0"
         style="stop-opacity:1;stop-color:#00a54e" />
      <stop
         id="stop2070"
         offset="1"
         style="stop-opacity:1;stop-color:#00914c" />
    </linearGradient>
    <linearGradient
       id="linearGradient2056"
       spreadMethod="pad"
       gradientTransform="matrix(37.710899,0,0,-57.496101,457.07285,516.7085)"
       gradientUnits="userSpaceOnUse"
       y2="0"
       x2="0.5"
       y1="0"
       x1="0">
      <stop
         id="stop2058"
         offset="0"
         style="stop-opacity:1;stop-color:#63c08b" />
      <stop
         id="stop2060"
         offset="1"
         style="stop-opacity:1;stop-color:#00a54e" />
    </linearGradient>
    <linearGradient
       id="linearGradient2046"
       spreadMethod="pad"
       gradientTransform="matrix(51.453899,0,0,-79.044899,390.04605,515.58438)"
       gradientUnits="userSpaceOnUse"
       y2="0"
       x2="1"
       y1="0"
       x1="0.5">
      <stop
         id="stop2048"
         offset="0"
         style="stop-opacity:1;stop-color:#00a54e" />
      <stop
         id="stop2050"
         offset="1"
         style="stop-opacity:1;stop-color:#00914c" />
    </linearGradient>
    <linearGradient
       id="linearGradient2036"
       spreadMethod="pad"
       gradientTransform="matrix(51.453899,0,0,-79.044899,390.04605,515.58438)"
       gradientUnits="userSpaceOnUse"
       y2="0"
       x2="0.5"
       y1="0"
       x1="0">
      <stop
         id="stop2038"
         offset="0"
         style="stop-opacity:1;stop-color:#63c08b" />
      <stop
         id="stop2040"
         offset="1"
         style="stop-opacity:1;stop-color:#00a54e" />
    </linearGradient>
    <linearGradient
       id="linearGradient2026"
       spreadMethod="pad"
       gradientTransform="matrix(76.804001,0,0,-69.769501,318.69174,530.2934)"
       gradientUnits="userSpaceOnUse"
       y2="0"
       x2="1"
       y1="0"
       x1="0.5">
      <stop
         id="stop2028"
         offset="0"
         style="stop-opacity:1;stop-color:#00a54e" />
      <stop
         id="stop2030"
         offset="1"
         style="stop-opacity:1;stop-color:#00914c" />
    </linearGradient>
    <linearGradient
       id="linearGradient2016"
       spreadMethod="pad"
       gradientTransform="matrix(76.804001,0,0,-69.769501,318.69174,530.2934)"
       gradientUnits="userSpaceOnUse"
       y2="0"
       x2="0.5"
       y1="0"
       x1="0">
      <stop
         id="stop2018"
         offset="0"
         style="stop-opacity:1;stop-color:#63c08b" />
      <stop
         id="stop2020"
         offset="1"
         style="stop-opacity:1;stop-color:#00a54e" />
    </linearGradient>
  </defs>
  <metadata
     id="metadata6656">
    <rdf:RDF>
      <cc:Work
         rdf:about="">
        <dc:format>image/svg+xml</dc:format>
        <dc:type
           rdf:resource="http://purl.org/dc/dcmitype/StillImage" />
        <dc:title></dc:title>
      </cc:Work>
    </rdf:RDF>
  </metadata>
  <g
     transform="translate(-148.61054,-360.9624)"
     id="layer1">
    <g
       id="g3287">
      <g
         transform="matrix(1.25,0,0,-1.25,81.111304,1283.4624)"
         id="g2024">
        <path
           d="m 166.141,724.715 c -0.621,-1.301 -1.496,-3.004 -2.266,-4.27 l -5.004,-8.687 c -0.035,-0.074 -0.148,-0.297 -0.148,-0.258 -0.473,-0.855 -1.059,-1.82 -1.606,-2.824 -0.551,3.304 -1.172,6.758 -1.719,10.062 -0.363,2.231 -0.656,4.047 -0.8,5.719 -0.149,1.227 -1.356,2.039 -2.743,2.004 -0.328,-0.035 -0.656,-0.035 -1.058,-0.035 -0.328,0 -0.656,0 -0.949,0.035 -1.243,0.035 -2.266,-0.742 -2.266,-1.781 -0.039,-1.524 -0.367,-4.16 -1.426,-9.207 -0.144,-0.743 -1.277,-5.571 -1.937,-8.059 -0.582,-2.226 -1.059,-3.934 -1.496,-5.195 -0.231,-0.672 0.195,-1.391 0.886,-1.649 l 1.797,0 c 1,0.243 1.797,0.922 1.883,1.832 0.109,1.039 0.363,2.711 0.731,4.754 0.878,4.641 1.828,9.242 2.742,13.883 0.035,-0.223 0.035,-0.332 0.035,-0.406 0,0 0.035,-0.149 0.254,-1.336 0.074,-0.371 0.148,-0.817 0.219,-1.301 0.66,-3.418 1.316,-7.129 1.972,-10.543 0.367,-2.379 0.516,-3.344 0.621,-4.16 0.075,-0.633 0.77,-1.152 1.61,-1.152 0.988,0 1.863,0.41 2.191,1.152 0.66,1.301 0.66,1.375 1.172,2.266 0.219,0.41 0.582,1.004 1.094,1.929 2.703,4.641 5.371,9.43 8.074,14.075 l -2.887,-15.114 c -0.402,-2.152 -0.691,-3.453 -0.914,-4.156 -0.211,-0.711 0.207,-1.5 0.985,-1.723 l 2.132,0 c 0.95,0.207 1.641,0.914 1.668,1.793 l 0,0.336 c 0,0.149 0.039,0.297 0.039,0.446 0.184,1.968 0.805,5.753 2.559,15.187 0.621,3.191 1.059,5.234 1.461,6.457 0.254,0.816 -0.512,1.707 -1.57,1.672 l -1.864,0 c -0.043,0 -0.086,0.004 -0.129,0.004 -1.48,0 -2.773,-0.629 -3.343,-1.75"
           style="fill:url(#linearGradient2026);fill-opacity:1;fill-rule:nonzero;stroke:none"
           id="path2032" />
      </g>
      <g
         transform="matrix(1.25,0,0,-1.25,81.111304,1283.4624)"
         id="g2044">
        <path
           d="m 186.785,718.516 c -0.586,-2.004 -1.824,-5.383 -4.457,-11.657 -0.402,-1.004 -0.805,-1.933 -1.242,-2.933 l -1.496,10.953 c -0.223,1.633 -0.332,2.781 -0.367,3.601 -0.11,1.114 -1.094,2.079 -2.45,2.04 l -0.765,0 c -1.024,0.039 -1.899,-0.778 -1.61,-1.707 l -0.035,0 c 0.293,-1.04 0.696,-2.711 1.168,-5.532 0.84,-4.828 1.133,-6.793 1.5,-11.101 0.11,-1.078 1.317,-1.746 2.559,-1.969 l -0.258,0 -0.949,-1.781 c -0.77,-1.375 -2.34,-3.973 -4.75,-4.121 -1.168,-0.075 -2.34,-0.594 -2.668,-1.559 -0.176,-0.738 0.437,-1.453 1.23,-1.715 l 1.207,0 c 4.864,1.012 7.102,4.871 9.071,8.695 l 5.957,13.29 c 0.621,1.488 1.57,3.714 2.484,5.382 0.109,0.227 0.184,0.375 0.293,0.559 0.402,0.707 -0.258,1.598 -1.207,1.598 l -0.293,0 c -0.078,0.004 -0.156,0.007 -0.234,0.007 -1.344,0 -2.34,-0.894 -2.688,-2.05"
           style="fill:url(#linearGradient2046);fill-opacity:1;fill-rule:nonzero;stroke:none"
           id="path2052" />
      </g>
      <g
         transform="matrix(1.25,0,0,-1.25,81.111304,1283.4624)"
         id="g2064">
        <path
           d="m 202.68,719.445 c -1.754,-1.375 -3.032,-3.23 -3.032,-5.273 0,-2.414 2.047,-3.676 3.141,-4.344 l 2.266,-1.336 c 1.023,-0.594 1.972,-1.262 1.972,-2.672 0,-1.523 -1.425,-3.16 -4.054,-3.16 -1.387,0 -2.301,0.262 -2.996,0.598 -0.914,0.48 -2.082,0.183 -2.414,-0.668 -0.29,-1.004 0.406,-2.117 1.535,-2.414 0.218,-0.047 0.468,-0.09 0.734,-0.129 l 4.176,0 c 1.308,0.183 2.781,0.601 4.113,1.574 2.195,1.637 2.961,3.789 2.961,5.387 0,2.226 -1.68,3.305 -2.777,3.972 l -1.864,1.149 c -1.312,0.742 -2.554,1.484 -2.554,3.195 0,1.485 1.386,3.305 3.945,3.305 0.766,0 1.426,-0.188 1.973,-0.445 0.949,-0.485 2.117,-0.297 2.519,0.593 0.367,0.817 -0.144,1.856 -1.207,2.078 l 0.039,0 c -0.695,0.184 -1.426,0.258 -2.449,0.258 -1.461,0 -4.164,-0.258 -6.027,-1.668"
           style="fill:url(#linearGradient2066);fill-opacity:1;fill-rule:nonzero;stroke:none"
           id="path2072" />
      </g>
      <g
         transform="matrix(1.25,0,0,-1.25,81.111304,1283.4624)"
         id="g2084">
        <path
           d="m 213.914,711.746 0,-2.84 c 0.172,-2.035 0.738,-3.73 1.555,-5.019 1.511,-2.422 4.047,-3.555 7.027,-3.914 l 5.004,0 c 0.293,0.031 0.566,0.058 0.828,0.09 1.57,0.222 2.668,1.261 3.18,2.488 0.254,0.668 -0.695,1.078 -1.461,0.781 -0.149,-0.074 -0.402,-0.187 -0.586,-0.262 l 0.035,0 c -1.387,-0.519 -2.375,-0.668 -3.578,-0.668 -5.117,0 -7.199,3.379 -7.199,8.094 0,6.125 2.922,13.961 10.484,13.961 1.461,0 2.488,-0.262 3.219,-0.668 1.058,-0.519 2.266,-0.187 2.664,0.777 0.367,0.891 -0.219,1.93 -1.313,2.192 -1.574,0.336 -2.886,0.41 -3.507,0.41 -12.043,0 -15.864,-8.707 -16.352,-15.422"
           style="fill:url(#linearGradient2086);fill-opacity:1;fill-rule:nonzero;stroke:none"
           id="path2092" />
      </g>
      <g
         transform="matrix(1.25,0,0,-1.25,81.111304,1283.4624)"
         id="g2104">
        <path
           d="m 233.453,709.414 0,-3.473 c 0.348,-2.261 1.383,-3.461 2.074,-4.132 1.008,-0.918 2.348,-1.485 3.778,-1.723 l 3.371,0 c 6.926,1.094 10.023,8.648 10.023,14.012 0,1.078 -0.074,3.304 -1.902,5.125 -1.203,1.261 -3.141,1.89 -5.625,1.89 -7.192,0 -11.02,-6.121 -11.719,-11.699 m 4.266,-2.297 c 0,2.934 1.351,11.621 6.906,11.621 1.242,0 2.082,-0.593 2.52,-1 1.058,-1.004 1.097,-2.601 1.097,-3.492 0,-1.781 -0.84,-11.953 -6.98,-11.953 -1.899,0 -3.543,1.297 -3.543,4.824"
           style="fill:url(#linearGradient2106);fill-opacity:1;fill-rule:nonzero;stroke:none"
           id="path2112" />
      </g>
      <g
         transform="matrix(1.25,0,0,-1.25,81.111304,1283.4624)"
         id="g2124">
        <path
           d="m 254.055,709.883 0,-4.32 c 0.394,-2.02 1.355,-3.122 2.008,-3.754 1.007,-0.918 2.347,-1.485 3.777,-1.723 l 3.371,0 c 6.922,1.094 10.023,8.648 10.023,14.012 0,1.078 -0.074,3.304 -1.902,5.125 -1.203,1.261 -3.141,1.89 -5.625,1.89 -6.992,0 -10.805,-5.785 -11.652,-11.23 m 4.199,-2.766 c 0,2.934 1.351,11.621 6.906,11.621 1.242,0 2.082,-0.593 2.52,-1 1.058,-1.004 1.093,-2.601 1.093,-3.492 0,-1.781 -0.839,-11.953 -6.976,-11.953 -1.899,0 -3.543,1.297 -3.543,4.824"
           style="fill:url(#linearGradient2126);fill-opacity:1;fill-rule:nonzero;stroke:none"
           id="path2132" />
      </g>
      <g
         transform="matrix(1.25,0,0,-1.25,81.111304,1283.4624)"
         id="g2144">
        <path
           d="m 280.762,726.832 c -0.442,-0.109 -0.77,-0.184 -1.172,-0.223 -1.059,-0.113 -1.496,-1.113 -1.457,-1.968 0.035,-1.227 -0.293,-3.672 -0.988,-7.723 -1.133,-6.605 -1.243,-7.164 -1.391,-8.02 -0.035,-0.257 -0.109,-0.554 -0.18,-1 0,-0.148 -0.039,-0.519 -0.109,-0.929 -0.051,-0.289 -0.102,-0.61 -0.152,-0.946 l 0,-3.273 c 0.277,-1.07 0.976,-2.023 2.585,-2.367 l 3.305,0 c 1.031,0.18 1.91,0.758 2.227,1.574 0.254,0.668 -0.367,1.336 -1.133,1.078 -0.109,-0.039 -0.332,-0.113 -0.367,-0.113 -0.512,-0.184 -0.805,-0.262 -1.461,-0.262 -0.805,0.039 -1.059,1.078 -1.059,1.078 -0.293,0.856 -0.039,2.231 0.18,3.602 0.109,0.519 0.183,1.152 0.258,1.633 0.547,3.304 1.132,6.722 1.679,10.023 0.184,1.043 0.368,1.934 0.512,2.715 0.293,1.594 0.512,2.707 0.695,3.637 0.063,0.808 -0.707,1.535 -1.586,1.535 -0.125,0 -0.257,-0.016 -0.386,-0.051"
           style="fill:url(#linearGradient2146);fill-opacity:1;fill-rule:nonzero;stroke:none"
           id="path2152" />
      </g>
      <g
         transform="matrix(1.25,0,0,-1.25,81.111304,1283.4624)"
         id="g2164">
        <path
           d="m 295.996,718.664 c 0,-2.785 2.012,-4.156 3.871,-5.348 l 2.086,-1.261 c 2.227,-1.297 3.434,-2.153 3.434,-4.157 0,-3.23 -2.778,-5.238 -6.211,-5.238 -0.875,0 -2.012,0.153 -2.961,0.485 -0.035,0 -0.11,0 -0.184,0.039 l 0.074,0 c -0.074,0.035 -0.144,0.074 -0.253,0.148 -1.133,0.594 -2.485,0.371 -2.817,-0.633 -0.004,-0.019 -0.012,-0.043 -0.019,-0.062 l 0,-1.106 c 0.179,-0.609 0.648,-1.136 1.375,-1.32 0.449,-0.113 0.922,-0.207 1.406,-0.273 l 4.082,0 c 1.918,0.234 3.812,0.792 5.398,1.761 1.461,0.961 4.641,3.637 4.641,7.125 0,2.86 -2.082,4.121 -4.313,5.422 l -2.156,1.262 c -1.351,0.781 -3.031,1.746 -3.031,4.047 0,1.633 1.316,4.863 5.59,4.863 1.5,0 2.629,-0.371 3.433,-0.816 0.95,-0.407 2.231,-0.188 2.45,0.707 0.254,0.964 -0.293,2.117 -1.5,2.375 -1.059,0.222 -2.227,0.371 -3.469,0.371 -7.453,0 -10.926,-4.676 -10.926,-8.391"
           style="fill:url(#linearGradient2166);fill-opacity:1;fill-rule:nonzero;stroke:none"
           id="path2172" />
      </g>
      <g
         transform="matrix(1.25,0,0,-1.25,81.111304,1283.4624)"
         id="g2184">
        <path
           d="m 315.617,716.992 c -0.879,-1.109 -2.148,-3.168 -2.769,-5.773 l 0,-6.321 c 0.644,-2.562 2.254,-4.382 5.718,-4.886 l 3.68,0 c 0.524,0.066 0.988,0.152 1.41,0.238 1.133,0.297 1.824,1.113 2.082,1.969 0.184,0.668 -0.621,1.187 -1.316,0.851 -0.875,-0.371 -2.008,-0.742 -3.434,-0.742 -3.543,-0.035 -4.093,2.934 -4.093,4.754 0,0.742 0.074,1.297 0.113,1.41 2.847,0.11 5.297,0.223 7.742,1.449 1.207,0.629 2.742,1.668 3.656,3.043 0.766,1.188 1.242,2.637 1.242,3.75 0,2.524 -1.863,4.454 -5.554,4.454 -2.52,0 -5.957,-1.04 -8.477,-4.196 m 4.02,-0.109 0.035,0 c 1.57,1.855 2.961,2.113 3.617,2.113 1.098,0 2.082,-0.777 2.082,-2.449 0,-1.484 -0.691,-2.781 -1.644,-3.711 -1.899,-1.82 -4.348,-3.27 -6.61,-3.488 0.289,2.113 1.059,5.828 2.52,7.535"
           style="fill:url(#linearGradient2186);fill-opacity:1;fill-rule:nonzero;stroke:none"
           id="path2192" />
      </g>
      <g
         transform="matrix(1.25,0,0,-1.25,81.111304,1283.4624)"
         id="g2204">
        <path
           d="m 341.633,720.93 c -0.66,-0.223 -1.391,-0.559 -2.082,-1.004 -1.317,-0.891 -2.34,-2.485 -3.071,-3.824 0.11,0.593 0.293,1.187 0.403,1.707 0.109,0.523 0.219,0.968 0.254,1.187 0.074,0.895 -0.949,1.637 -2.043,1.414 l 0.035,0 c -0.293,-0.039 -0.621,-0.074 -0.988,-0.113 -1.094,-0.149 -1.606,-1.074 -1.532,-1.965 0.036,-0.855 -0.074,-2.117 -0.441,-4.121 l -1.789,-10.063 c -0.051,-0.378 -0.149,-0.808 -0.266,-1.246 l 0,-1.562 c 0.215,-0.317 0.578,-0.567 1,-0.695 l 1.637,0 c 0.883,0.25 1.527,0.953 1.609,1.796 0.184,2.45 1.024,7.348 1.575,9.317 0.984,3.64 2.996,5.273 4.531,5.683 1.203,0.297 2.445,0.926 2.812,1.93 0.25,0.797 -0.339,1.625 -1.207,1.625 -0.14,0 -0.289,-0.019 -0.437,-0.066"
           style="fill:url(#linearGradient2206);fill-opacity:1;fill-rule:nonzero;stroke:none"
           id="path2212" />
      </g>
      <g
         transform="matrix(1.25,0,0,-1.25,81.111304,1283.4624)"
         id="g2224">
        <path
           d="m 356.977,718.629 c -0.329,-1.188 -0.914,-2.676 -1.789,-4.606 l -4.676,-9.765 c -0.77,4.195 -0.949,5.308 -1.61,10.918 -0.183,1.594 -0.254,2.672 -0.293,3.414 -0.035,1.078 -0.984,1.969 -2.226,1.93 l -0.879,0 c -0.629,0.023 -1.223,-0.258 -1.535,-0.676 l 0,-1.785 c 0.113,-0.473 0.234,-1.047 0.367,-1.77 0.437,-2.117 0.547,-2.637 0.766,-4.012 0.039,-0.222 0.074,-0.48 0.113,-0.703 0.328,-2.008 0.691,-4.195 1.019,-6.203 0.149,-0.965 0.293,-1.93 0.403,-2.894 0.113,-0.879 0.824,-1.586 1.769,-1.872 l 2.039,0 c 0.996,0.247 1.856,0.821 2.258,1.614 0.293,0.629 0.621,1.336 1.203,2.484 l 1.098,2.231 c 2.812,5.789 3.031,6.199 4.824,9.429 0.547,1 0.985,1.742 1.461,2.524 0.438,0.742 -0.328,1.672 -1.351,1.672 -1.391,0 -2.594,-0.782 -2.961,-1.93"
           style="fill:url(#linearGradient2226);fill-opacity:1;fill-rule:nonzero;stroke:none"
           id="path2232" />
      </g>
      <g
         transform="matrix(1.25,0,0,-1.25,81.111304,1283.4624)"
         id="g2244">
        <path
           d="m 364.504,716.992 c -0.809,-1.023 -1.953,-2.851 -2.613,-5.172 l 0,-7.468 c 0.734,-2.278 2.351,-3.875 5.562,-4.34 l 3.68,0 c 0.523,0.066 0.988,0.152 1.41,0.238 1.133,0.297 1.824,1.113 2.082,1.969 0.184,0.668 -0.621,1.187 -1.316,0.851 -0.875,-0.371 -2.008,-0.742 -3.434,-0.742 -3.543,-0.035 -4.094,2.934 -4.094,4.754 0,0.742 0.074,1.297 0.114,1.41 2.847,0.11 5.296,0.223 7.746,1.449 1.203,0.629 2.738,1.668 3.652,3.043 0.766,1.188 1.242,2.637 1.242,3.75 0,2.524 -1.863,4.454 -5.555,4.454 -2.519,0 -5.957,-1.04 -8.476,-4.196 m 4.019,-0.109 0.036,0 c 1.574,1.855 2.961,2.113 3.617,2.113 1.097,0 2.086,-0.777 2.086,-2.449 0,-1.484 -0.696,-2.781 -1.649,-3.711 -1.898,-1.82 -4.347,-3.27 -6.609,-3.488 0.293,2.113 1.059,5.828 2.519,7.535"
           style="fill:url(#linearGradient2246);fill-opacity:1;fill-rule:nonzero;stroke:none"
           id="path2252" />
      </g>
      <g
         transform="matrix(1.25,0,0,-1.25,81.111304,1283.4624)"
         id="g2264">
        <path
           d="m 390.52,720.93 c -0.661,-0.223 -1.391,-0.559 -2.082,-1.004 -1.317,-0.891 -2.34,-2.485 -3.071,-3.824 0.11,0.593 0.293,1.187 0.403,1.707 0.109,0.523 0.218,0.968 0.253,1.187 0.075,0.895 -0.949,1.637 -2.043,1.414 l 0.036,0 c -0.293,-0.039 -0.621,-0.074 -0.989,-0.113 -1.093,-0.149 -1.605,-1.074 -1.531,-1.965 0.035,-0.855 -0.074,-2.117 -0.441,-4.121 l -1.789,-10.063 c -0.008,-0.062 -0.02,-0.128 -0.028,-0.195 l 0,-2.887 c 0.282,-0.253 0.672,-0.437 1.102,-0.496 l 0.937,0 c 1.067,0.141 1.875,0.918 1.973,1.871 0.18,2.45 1.02,7.348 1.57,9.317 0.985,3.64 2.996,5.273 4.532,5.683 1.203,0.297 2.445,0.926 2.812,1.93 0.25,0.797 -0.34,1.625 -1.207,1.625 -0.141,0 -0.285,-0.019 -0.437,-0.066"
           style="fill:url(#linearGradient2266);fill-opacity:1;fill-rule:nonzero;stroke:none"
           id="path2272" />
      </g>
      <g
         transform="matrix(1.25,0,0,-1.25,81.111304,1283.4624)"
         id="g2624">
        <path
           d="m 80.176,737.906 c -1.75,-0.371 -3.563,-0.433 -5.274,-0.984 -2.011,-0.625 -3.765,-2.434 -3.757,-4.629 0.16,-1.813 1.007,-3.496 1.156,-5.309 0.144,-2.773 -1.832,-5.222 -4.168,-6.488 -2.746,-1.492 -5.965,-1.508 -8.906,-2.398 -2.176,-0.77 -4.18,-2.414 -4.965,-4.633 -0.66,-1.961 0.101,-3.988 0.359,-5.949 0.184,-1.481 0.867,-2.895 2,-3.875 1.164,-1.176 2.902,-1.395 4.469,-1.512 3.066,-0.016 5.902,1.375 8.918,1.734 3.238,0.297 6.625,-0.961 8.863,-3.324 1.719,-1.851 1.973,-4.457 2.672,-6.773 0.531,-1.77 1.754,-3.27 3.187,-4.399 1.911,-1.461 4.559,-1.789 6.821,-1.027 1.344,0.453 2.707,0.832 4.058,1.242 2.11,0.621 3.883,2.207 4.856,4.164 0.848,1.836 0.43,3.938 -0.324,5.731 -0.719,1.757 -1.055,3.757 -2.391,5.195 -1.836,2.215 -5.172,2.98 -7.816,1.894 -1.996,-0.531 -4,-1.23 -6.094,-1.125 -3.16,-0.152 -6.555,1.008 -8.469,3.625 -0.984,1.262 -1.211,2.879 -1.664,4.364 -0.371,1.383 -0.82,2.804 -0.613,4.25 0.422,2.98 2.89,5.316 5.664,6.238 2.855,1 6.25,0.719 8.668,2.777 1.418,1.047 1.883,3.098 1.262,4.711 -0.465,1.242 -0.782,2.555 -1.446,3.707 -0.824,1.184 -1.965,2.313 -3.437,2.575 -0.817,0.175 -1.657,0.312 -2.492,0.312 -0.379,0 -0.758,-0.027 -1.137,-0.094"
           style="fill:url(#linearGradient2626);fill-opacity:1;fill-rule:nonzero;stroke:none"
           id="path2632" />
      </g>
      <g
         transform="matrix(1.25,0,0,-1.25,81.111304,1283.4624)"
         id="g2644">
        <path
           d="m 103.109,727.488 c -1.824,-0.508 -3.714,-0.699 -5.543,-1.164 -1.66,-0.543 -2.961,-2.101 -3.168,-3.84 -0.125,-1.144 0.344,-2.226 0.739,-3.273 0.472,-1.223 0.797,-2.52 1.531,-3.617 1.047,-1.567 2.848,-2.477 4.656,-2.836 2.739,-0.449 5.328,0.816 7.977,1.262 2.945,0.3 5.953,-0.899 8.043,-2.965 1.75,-1.785 2.469,-4.25 3.566,-6.438 1.422,-3.019 0.86,-6.988 -1.75,-9.183 -1.738,-1.489 -4.09,-1.786 -6.176,-2.559 -2.289,-0.539 -4.214,-2.328 -4.89,-4.578 -0.496,-1.695 -0.258,-3.524 0.386,-5.145 0.618,-1.586 1.153,-3.207 1.805,-4.781 0.735,-1.664 2,-3.086 3.531,-4.055 2.364,-1.14 5.227,-1.117 7.629,-0.086 1.16,0.504 2.414,0.829 3.477,1.528 1.32,0.93 2.461,2.199 3.039,3.719 0.34,1.414 0.301,2.921 -0.039,4.332 -0.926,3.089 -3.109,5.812 -3.16,9.14 0.008,2.34 0.828,4.836 2.679,6.364 1.973,1.578 4.661,1.589 6.836,2.753 2.004,1.207 2.692,3.938 1.911,6.071 -0.524,1.398 -1.387,2.633 -2.032,3.968 -1.351,2.723 -4.441,4.516 -7.468,4.336 -2.208,-0.296 -4.305,-1.289 -6.559,-1.261 -3.137,0.191 -6.168,1.855 -7.992,4.418 -0.914,1.457 -1.442,3.109 -2.242,4.625 -1.102,2.054 -3.438,3.355 -5.754,3.355 -0.348,0 -0.692,-0.027 -1.032,-0.09"
           style="fill:url(#linearGradient2646);fill-opacity:1;fill-rule:nonzero;stroke:none"
           id="path2652" />
      </g>
      <g
         transform="matrix(1.25,0,0,-1.25,81.111304,1283.4624)"
         id="g2664">
        <path
           d="m 85.637,723.828 c -1.231,-0.199 -2.434,-0.543 -3.657,-0.777 -1.453,-0.352 -3.05,-0.367 -4.304,-1.278 -1.203,-0.902 -2.309,-2.117 -2.676,-3.609 -0.359,-2.035 0.73,-3.934 1.129,-5.887 0.449,-2.14 2.367,-3.515 4.351,-4.117 2.805,-1.051 5.715,0.113 8.458,0.774 3.992,1.218 8.57,-0.414 11.062,-3.715 0.871,-1.133 1.227,-2.535 1.746,-3.84 0.461,-1.305 1.094,-2.582 1.184,-3.984 0.383,-4.129 -2.188,-8.407 -6.176,-9.727 -1.805,-0.602 -3.609,-1.195 -5.422,-1.762 -2.328,-0.82 -3.961,-2.871 -4.969,-5.043 -0.738,-1.64 -0.679,-3.531 -0.211,-5.238 0.469,-1.695 0.914,-3.395 1.368,-5.094 0.683,-2.445 2.648,-4.515 5.109,-5.203 1.957,-0.551 4.109,-0.609 6.035,0.082 1.274,0.496 2.563,0.953 3.828,1.469 1.762,0.851 3.203,2.254 4.367,3.805 1.043,1.3 1.157,3.062 1.168,4.664 -0.312,3.769 -2.832,7.039 -2.824,10.871 -0.008,3.246 1.797,6.551 4.777,7.965 1.973,0.863 4.118,1.25 6.11,2.058 2.719,1.219 4.101,4.696 3.012,7.461 -0.5,1.199 -1.063,2.375 -1.575,3.57 -1.375,3.532 -5.699,5.653 -9.316,4.457 -1.934,-0.484 -3.859,-1.101 -5.867,-1.16 -3.34,0.071 -6.703,1.922 -8.231,4.95 -1.105,2.128 -1.265,4.785 -3.062,6.519 -1.262,1.137 -2.965,1.832 -4.672,1.832 -0.246,0 -0.496,-0.016 -0.742,-0.043"
           style="fill:url(#linearGradient2666);fill-opacity:1;fill-rule:nonzero;stroke:none"
           id="path2672" />
      </g>
      <g
         style="font-style:normal;font-weight:normal;font-size:18px;line-height:125%;font-family:Sans;letter-spacing:0px;word-spacing:0px;fill:#000000;fill-opacity:1;stroke:none"
         id="text3313"
         transform="translate(-2,0)">
        <path
           d="m 421.04142,426.90086 c -0.12867,6.7e-4 -0.24734,0.003 -0.356,0.008 -0.10867,0.005 -0.20333,0.007 -0.28399,0.008 l -0.544,2.94397 c -0.032,0.15933 -0.056,0.30066 -0.072,0.42399 -0.016,0.12333 -0.024,0.23267 -0.024,0.328 -0.007,0.253 0.0867,0.40699 0.28,0.46199 0.19333,0.055 0.52666,0.077 0.99999,0.066 0.23932,0.002 0.55665,-0.006 0.95199,-0.024 0.39532,-0.018 0.77665,-0.058 1.14398,-0.12 0.009,-6.6e-4 0.023,-0.003 0.042,-0.008 0.019,-0.005 0.037,-0.007 0.054,-0.008 -0.026,-3.3e-4 -0.018,-0.004 0.024,-0.01 0.042,-0.006 0.082,-0.0137 0.12,-0.022 0.0167,-0.008 0.0353,-0.0157 0.056,-0.022 0.0207,-0.006 0.0393,-0.01 0.056,-0.01 0.25899,-0.0507 0.47698,-0.0253 0.65399,0.076 0.17699,0.10134 0.24699,0.24667 0.21,0.436 -0.0853,0.26166 -0.25468,0.47432 -0.508,0.63799 -0.25333,0.16366 -0.55866,0.24433 -0.91599,0.242 l -1.67997,0 c -0.11301,-6.7e-4 -0.23101,-0.003 -0.354,-0.008 -0.123,-0.005 -0.245,-0.007 -0.366,-0.008 -0.35499,0.008 -0.76099,0.0123 -1.21798,0.014 -0.457,0.002 -0.85099,0.002 -1.18198,0.002 -0.30867,-0.004 -0.53933,-0.0997 -0.692,-0.286 -0.15266,-0.18633 -0.19933,-0.38966 -0.13999,-0.60999 0.072,-0.242 0.15599,-0.57399 0.25199,-0.99599 0.096,-0.42199 0.204,-0.96999 0.324,-1.64398 l 0.44799,-2.44797 c 0.21367,-1.17331 0.37033,-2.10663 0.47,-2.79996 0.0997,-0.69332 0.15633,-1.21064 0.16999,-1.55198 0.026,-0.25432 0.154,-0.46965 0.384,-0.64599 0.22999,-0.17632 0.50199,-0.27566 0.81599,-0.298 0.33866,0.008 0.70932,0.0123 1.11198,0.014 0.40266,0.002 0.77332,0.002 1.11199,0.002 0.45832,-3.2e-4 0.89765,-0.004 1.31798,-0.01 0.42032,-0.006 0.80765,-0.0136 1.16199,-0.022 0.23365,0.0147 0.43432,0.0893 0.60199,0.224 0.16766,0.13467 0.24432,0.28934 0.23,0.46399 -0.048,0.18868 -0.18001,0.33534 -0.396,0.44 -0.216,0.10467 -0.468,0.13934 -0.75599,0.104 -0.11334,-0.0173 -0.29067,-0.0347 -0.53199,-0.052 -0.24134,-0.0173 -0.53867,-0.0267 -0.89199,-0.028 -0.31033,3.4e-4 -0.61766,0.004 -0.92199,0.01 -0.30433,0.006 -0.56766,0.0137 -0.78999,0.022 -0.016,6.7e-4 -0.032,0.003 -0.048,0.008 -0.016,0.005 -0.032,0.007 -0.048,0.008 -0.0553,0.28067 -0.10866,0.56733 -0.15999,0.85998 -0.0513,0.29268 -0.10467,0.58734 -0.16,0.88399 -0.0567,0.30267 -0.11534,0.59734 -0.176,0.88399 -0.0607,0.28667 -0.11933,0.57333 -0.176,0.85999 l 0.432,0 c 0.032,-6.6e-4 0.064,-0.003 0.096,-0.008 0.032,-0.005 0.064,-0.007 0.096,-0.008 l 0.17599,0 c 0.12333,-3.3e-4 0.24866,-0.004 0.376,-0.01 0.12732,-0.006 0.23666,-0.0137 0.32799,-0.022 0.28566,-0.0137 0.53432,0.0337 0.74599,0.142 0.21166,0.10834 0.30433,0.26367 0.278,0.46599 -0.058,0.22401 -0.23,0.392 -0.51599,0.504 -0.286,0.112 -0.578,0.168 -0.87599,0.16799 -0.10867,-0.008 -0.23134,-0.0157 -0.368,-0.022 -0.13667,-0.006 -0.25933,-0.01 -0.36799,-0.01 z"
           style="font-style:oblique;font-variant:normal;font-weight:bold;font-stretch:normal;font-size:16px;font-family:'Raspoutine DemiBold';-inkscape-font-specification:'Raspoutine DemiBold';fill:#000080"
           id="path3249" />
        <path
           d="m 435.55333,423.3009 c 0.34932,-0.0217 0.75865,0.0737 1.22799,0.286 0.46931,0.21234 0.72664,0.67166 0.77199,1.37798 -3.5e-4,0.18067 -0.0157,0.37534 -0.046,0.58399 -0.0303,0.20867 -0.0737,0.45134 -0.13,0.72799 -0.04,0.21067 -0.08,0.43334 -0.12,0.66799 -0.04,0.23467 -0.08,0.46534 -0.12,0.692 -0.0407,0.22466 -0.0833,0.45133 -0.12799,0.67999 -0.0447,0.22866 -0.0874,0.45533 -0.128,0.67999 -0.10235,0.55766 -0.17768,1.02632 -0.226,1.40598 -0.0483,0.37966 -0.0797,0.68433 -0.094,0.91399 -0.0263,0.26133 -0.15767,0.47466 -0.39399,0.63999 -0.23634,0.16533 -0.51567,0.25066 -0.83799,0.256 l -0.128,0 c -0.30167,-0.002 -0.53434,-0.086 -0.69799,-0.252 -0.16368,-0.166 -0.22434,-0.35399 -0.182,-0.56399 0.0483,-0.156 0.0997,-0.356 0.154,-0.6 0.0543,-0.24399 0.10965,-0.50799 0.166,-0.79198 0.0407,-0.23233 0.0833,-0.46766 0.12799,-0.706 0.0447,-0.23832 0.0873,-0.47765 0.128,-0.71799 0.08,-0.47999 0.15999,-0.94398 0.24,-1.39198 0.05,-0.28066 0.094,-0.55932 0.132,-0.83599 0.038,-0.27666 0.058,-0.49932 0.06,-0.66799 -10e-6,-0.39899 -0.028,-0.66898 -0.084,-0.80999 -0.056,-0.14099 -0.14001,-0.20699 -0.252,-0.198 -0.325,-0.008 -0.687,0.15634 -1.08598,0.494 -0.39901,0.33767 -0.757,0.89833 -1.07399,1.68198 -0.20401,0.69199 -0.38,1.49198 -0.52799,2.39996 -0.14801,0.908 -0.24401,1.61199 -0.288,2.11198 -0.034,0.24466 -0.17001,0.44333 -0.408,0.59599 -0.238,0.15266 -0.51799,0.23133 -0.83998,0.236 -0.30567,-0.008 -0.55434,-0.092 -0.74599,-0.252 -0.19167,-0.16 -0.26834,-0.34799 -0.23,-0.56399 0.07,-0.24333 0.14199,-0.55666 0.216,-0.93999 0.074,-0.38333 0.16199,-0.86465 0.26399,-1.44398 0.032,-0.179 0.064,-0.36499 0.096,-0.55799 0.032,-0.193 0.064,-0.375 0.096,-0.546 0.089,-0.50099 0.15899,-0.94298 0.21,-1.32598 0.051,-0.38299 0.077,-0.67699 0.078,-0.88199 0.007,-0.36465 -0.0113,-0.62732 -0.056,-0.78799 -0.0447,-0.16066 -0.15934,-0.23932 -0.344,-0.236 -0.37567,0.006 -0.74433,0.19001 -1.10598,0.552 -0.36167,0.362 -0.67033,0.86599 -0.92599,1.51198 -0.11951,0.3756 -0.23783,0.85816 -0.35496,1.44768 -0.11714,0.58953 -0.22005,1.17639 -0.30874,1.76057 -0.0887,0.58419 -0.15012,1.05609 -0.18429,1.41569 -0.0257,0.24533 -0.15434,0.44666 -0.386,0.60399 -0.23166,0.15733 -0.50833,0.23866 -0.82999,0.244 l -0.12799,0 c -0.27967,-0.002 -0.50433,-0.0823 -0.674,-0.242 -0.16966,-0.15966 -0.23833,-0.34033 -0.20599,-0.54199 0.0467,-0.178 0.0893,-0.358 0.128,-0.54 0.0387,-0.18199 0.0813,-0.40199 0.12799,-0.65999 0.009,-0.028 0.0193,-0.068 0.032,-0.12 0.0127,-0.052 0.0233,-0.092 0.032,-0.11999 l -0.016,0.016 c 0.08,-0.432 0.16,-0.87999 0.24,-1.34399 0.0803,-0.44265 0.15966,-0.88932 0.238,-1.33998 0.0783,-0.45066 0.15366,-0.88932 0.22599,-1.31598 0.063,-0.33366 0.105,-0.61432 0.126,-0.84199 0.021,-0.22766 0.027,-0.41632 0.018,-0.566 -0.0113,-0.21398 0.0393,-0.40598 0.152,-0.57599 0.11266,-0.16999 0.30733,-0.28199 0.58399,-0.33599 0.0507,-0.0133 0.10933,-0.0187 0.176,-0.016 0.023,-6.6e-4 0.041,-0.003 0.054,-0.008 0.013,-0.005 0.027,-0.007 0.042,-0.008 0.0257,-0.008 0.0583,-0.0157 0.098,-0.022 0.0397,-0.006 0.0763,-0.01 0.11,-0.01 0.28232,-0.036 0.54165,0.008 0.77799,0.132 0.23632,0.124 0.33966,0.304 0.30999,0.53999 -0.016,0.0667 -0.032,0.14134 -0.048,0.224 0.0563,-0.0793 0.11966,-0.15666 0.19,-0.232 0.0703,-0.0753 0.14566,-0.15266 0.226,-0.232 0.085,-0.10766 0.28699,-0.25232 0.60599,-0.43399 0.31899,-0.18166 0.72499,-0.28232 1.21798,-0.302 0.65332,0.026 1.12665,0.23001 1.41999,0.61199 0.29332,0.38201 0.47065,0.786 0.53199,1.21199 0.12099,-0.18633 0.25499,-0.37366 0.40199,-0.562 0.14699,-0.18832 0.30099,-0.36365 0.462,-0.52599 0.0916,-0.10766 0.29632,-0.25232 0.61399,-0.43399 0.31765,-0.18166 0.72631,-0.28232 1.22598,-0.302 z"
           style="font-style:oblique;font-variant:normal;font-weight:bold;font-stretch:normal;font-size:16px;font-family:'Raspoutine DemiBold';-inkscape-font-specification:'Raspoutine DemiBold';fill:#000080"
           id="path3251" />
        <path
           d="m 440.89393,427.65285 c -0.13767,0.47299 -0.26233,0.99499 -0.374,1.56598 -0.11166,0.57099 -0.20033,1.04098 -0.26599,1.40998 -0.0237,0.0463 -0.0403,0.0937 -0.05,0.142 -0.01,0.0483 -0.0143,0.10766 -0.014,0.17799 l -0.048,0 c 0.15066,0.084 0.32133,0.16 0.51199,0.228 0.19066,0.068 0.40933,0.104 0.656,0.108 0.49198,-0.016 0.88398,-0.124 1.17598,-0.324 0.29199,-0.19999 0.50799,-0.39599 0.64799,-0.58799 0.42532,-0.55766 0.72265,-1.21831 0.89199,-1.98197 0.16932,-0.76366 0.25066,-1.40431 0.244,-1.92198 0.003,-0.46965 -0.079,-0.86632 -0.246,-1.18998 -0.167,-0.32366 -0.437,-0.49232 -0.80999,-0.506 -0.43267,0.007 -0.85533,0.26101 -1.26798,0.76199 -0.41267,0.501 -0.76333,1.20699 -1.05199,2.11798 z m 5.63193,-1.64798 c -0.005,0.84399 -0.18301,1.72398 -0.534,2.63996 -0.351,0.91599 -0.84499,1.69998 -1.48198,2.35197 -0.43533,0.43666 -0.94066,0.77933 -1.51598,1.02799 -0.57533,0.24866 -1.20065,0.37533 -1.87597,0.37999 -0.15167,0.002 -0.32433,-0.002 -0.518,-0.012 -0.19366,-0.01 -0.41033,-0.038 -0.64999,-0.084 -0.0243,0.15799 -0.0517,0.30999 -0.082,0.45599 -0.0303,0.146 -0.0617,0.29799 -0.094,0.45599 -0.064,0.33333 -0.128,0.65866 -0.19199,0.97599 -0.0473,0.26566 -0.0847,0.50633 -0.112,0.72199 -0.0273,0.21566 -0.0487,0.39633 -0.064,0.54199 -0.028,0.26266 -0.148,0.47733 -0.36,0.644 -0.21199,0.16666 -0.49199,0.24532 -0.83998,0.23599 l -0.112,0 c -0.276,-0.007 -0.512,-0.0813 -0.70799,-0.22399 -0.196,-0.14267 -0.28,-0.31334 -0.252,-0.512 0.064,-0.24333 0.128,-0.51266 0.192,-0.80799 0.064,-0.29533 0.128,-0.59666 0.19199,-0.90398 0.017,-0.088 0.035,-0.176 0.054,-0.264 0.019,-0.088 0.033,-0.176 0.042,-0.264 0,-0.009 0.004,-0.0273 0.012,-0.056 0.008,-0.0287 0.02,-0.0633 0.036,-0.104 0.007,-0.0247 0.0127,-0.0513 0.016,-0.08 0.003,-0.0287 0.009,-0.0553 0.016,-0.08 l -0.016,0.016 1.00799,-5.19994 c 0.031,-0.16732 0.057,-0.32466 0.078,-0.47199 0.021,-0.14733 0.043,-0.28866 0.066,-0.424 0.0163,-0.11066 0.0357,-0.22532 0.058,-0.34399 0.0223,-0.11866 0.0457,-0.24933 0.07,-0.392 0.023,-0.049 0.037,-0.095 0.042,-0.13799 0.005,-0.043 0.007,-0.077 0.006,-0.102 0.0623,-0.32933 0.10167,-0.62265 0.118,-0.87999 0.0163,-0.25732 0.0197,-0.47065 0.01,-0.63999 0.005,-0.16166 0.0627,-0.32233 0.172,-0.482 0.10933,-0.15965 0.28666,-0.26032 0.53199,-0.30199 0.21067,-0.0187 0.39733,-0.0453 0.56,-0.08 0.29099,-0.0407 0.54099,0.005 0.74999,0.136 0.20899,0.13134 0.31099,0.30467 0.30599,0.51999 -0.048,0.22134 -0.096,0.43467 -0.14399,0.63999 0.12766,-0.18599 0.26832,-0.36599 0.42199,-0.53999 0.15366,-0.17399 0.32232,-0.32999 0.50599,-0.468 0.094,-0.0857 0.29399,-0.19432 0.6,-0.32599 0.30599,-0.13166 0.72998,-0.20432 1.27198,-0.218 0.74465,0.003 1.33131,0.22934 1.75998,0.67999 0.42865,0.45067 0.64731,1.10933 0.65599,1.97598 z"
           style="font-style:oblique;font-variant:normal;font-weight:bold;font-stretch:normal;font-size:16px;font-family:'Raspoutine DemiBold';-inkscape-font-specification:'Raspoutine DemiBold';fill:#000080"
           id="path3253" />
        <path
           d="m 452.78139,424.83688 c -0.0957,-0.0943 -0.22434,-0.18566 -0.386,-0.274 -0.16167,-0.0883 -0.35833,-0.13565 -0.58999,-0.14199 -0.75545,0.0379 -1.34053,0.37274 -1.75524,1.00443 -0.41471,0.6317 -0.70231,1.33273 -0.8628,2.10308 -0.16049,0.77037 -0.23713,1.38251 -0.22992,1.83642 0.0113,0.74266 0.14866,1.26932 0.41199,1.57998 0.26333,0.31067 0.58466,0.46133 0.96399,0.452 0.83139,-0.0486 1.45479,-0.4314 1.8702,-1.14843 0.4154,-0.71703 0.69035,-1.47672 0.82488,-2.27908 0.13451,-0.80236 0.19614,-1.35583 0.18488,-1.66043 0.008,-0.21232 -0.012,-0.45965 -0.06,-0.74199 -0.048,-0.28232 -0.172,-0.52565 -0.37199,-0.72999 z m 1.82398,-0.67199 c 0.39998,0.428 0.64798,0.844 0.74399,1.24798 0.096,0.40401 0.13599,0.724 0.11999,0.95999 0.003,0.86103 -0.18222,1.75761 -0.55465,2.68975 -0.37245,0.93213 -0.94844,1.7256 -1.72798,2.38041 -0.77955,0.65481 -1.77865,0.99673 -2.9973,1.02576 -0.46966,0.001 -0.91832,-0.065 -1.34598,-0.19799 -0.42766,-0.133 -0.80032,-0.339 -1.11799,-0.618 -0.20933,-0.17633 -0.42266,-0.45966 -0.63999,-0.84999 -0.21733,-0.39032 -0.33466,-0.93365 -0.35199,-1.62997 -0.001,-0.88305 0.1913,-1.76936 0.57717,-2.65893 0.38588,-0.88957 0.97174,-1.63602 1.75761,-2.23938 0.78586,-0.60334 1.77825,-0.91722 2.97715,-0.94162 0.57065,-3.2e-4 1.07331,0.0683 1.50798,0.206 0.43465,0.13767 0.78531,0.34634 1.05199,0.62599 z"
           style="font-style:oblique;font-variant:normal;font-weight:bold;font-stretch:normal;font-size:16px;font-family:'Raspoutine DemiBold';-inkscape-font-specification:'Raspoutine DemiBold';fill:#000080"
           id="path3255" />
        <path
           d="m 466.59733,423.5569 c -0.34734,0.009 -0.66067,0.0867 -0.93999,0.23199 -0.27934,0.14534 -0.45667,0.35068 -0.53199,0.616 l 0,-0.016 c -0.0667,0.225 -0.14934,0.491 -0.248,0.79799 -0.0987,0.307 -0.19734,0.601 -0.296,0.88199 -0.14367,0.34566 -0.28834,0.69833 -0.43399,1.05798 -0.14567,0.35967 -0.29434,0.71633 -0.446,1.06999 -0.11034,0.26233 -0.21367,0.51766 -0.30999,0.76599 -0.0963,0.24833 -0.19567,0.49966 -0.298,0.75399 -0.0207,-0.22466 -0.0273,-0.33533 -0.02,-0.332 0.007,0.003 0.009,-0.0673 0.004,-0.21199 3.3e-4,-0.098 -3.4e-4,-0.206 -0.002,-0.324 -0.002,-0.118 -0.006,-0.23399 -0.014,-0.348 -0.0443,-1.04964 -0.12767,-1.9703 -0.24999,-2.76196 -0.12234,-0.79165 -0.35367,-1.20431 -0.694,-1.23798 -0.351,0.008 -0.66099,0.0797 -0.92998,0.21399 -0.269,0.13434 -0.455,0.32967 -0.558,0.586 l 0,0.016 c -0.016,0.0327 -0.028,0.0593 -0.036,0.08 -0.008,0.0207 -0.012,0.0313 -0.012,0.032 -0.0553,0.15834 -0.11667,0.31767 -0.18399,0.478 -0.0673,0.16034 -0.14467,0.33167 -0.232,0.51399 l -0.99199,2.33597 c -0.016,0.0487 -0.036,0.10334 -0.06,0.164 -0.024,0.0607 -0.052,0.12333 -0.084,0.188 -0.0247,0.0577 -0.0513,0.11833 -0.08,0.18199 -0.0287,0.0637 -0.0553,0.12034 -0.08,0.17 -6.7e-4,0.007 -0.003,0.0127 -0.008,0.016 -0.005,0.003 -0.007,0.009 -0.008,0.016 l 0,-0.032 0,-0.064 c 3.3e-4,-0.29032 -3.4e-4,-0.59765 -0.002,-0.92199 -0.002,-0.32432 -0.006,-0.65165 -0.014,-0.98198 -0.007,-0.30533 -0.0127,-0.63066 -0.016,-0.97599 -0.003,-0.34532 -0.009,-0.65465 -0.016,-0.92799 3.3e-4,-0.25499 0.004,-0.47698 0.01,-0.66599 0.006,-0.18899 0.0137,-0.35099 0.022,-0.48599 0.005,-0.25366 -0.105,-0.46232 -0.33,-0.626 -0.225,-0.16365 -0.49899,-0.24832 -0.82199,-0.25399 l -0.144,0 c -0.31266,0.002 -0.56732,0.094 -0.76399,0.27599 -0.19666,0.18201 -0.28333,0.39401 -0.25999,0.636 0.0383,0.19167 0.0697,0.42433 0.094,0.69799 0.0243,0.27367 0.0517,0.63833 0.082,1.09398 l 0.192,3.05596 c 0.0133,0.208 0.0187,0.448 0.016,0.71999 -3.3e-4,0.218 -0.004,0.438 -0.01,0.66 -0.006,0.22199 -0.0137,0.43399 -0.022,0.63599 0.003,0.25433 0.11733,0.46566 0.344,0.63399 0.22666,0.16833 0.50132,0.25566 0.82399,0.262 l 0.128,0 c 0.36166,0.008 0.68632,-0.052 0.97398,-0.18 0.28766,-0.128 0.48033,-0.324 0.578,-0.58799 0.078,-0.23333 0.17399,-0.49066 0.28799,-0.77199 0.114,-0.28133 0.25799,-0.62666 0.432,-1.03599 0.0807,-0.24833 0.16732,-0.49566 0.25999,-0.74199 0.0927,-0.24633 0.18733,-0.48966 0.284,-0.72999 0.0307,0.59033 0.0533,1.12165 0.068,1.59398 0.0147,0.47233 0.0293,0.99165 0.044,1.55798 0.016,0.26133 0.13999,0.47466 0.37199,0.63999 0.23199,0.16533 0.52399,0.25066 0.87599,0.256 l 0.144,0 c 0.35899,0.004 0.67698,-0.072 0.95399,-0.228 0.27699,-0.156 0.47098,-0.368 0.58199,-0.63599 0.0137,-0.0393 0.0183,-0.0687 0.014,-0.088 -0.004,-0.0193 -0.004,-0.0327 0.002,-0.04 0.003,-0.003 0.0167,-0.017 0.04,-0.042 0.0233,-0.025 0.0367,-0.043 0.04,-0.054 0.032,-0.0507 0.048,-0.0773 0.048,-0.08 l -0.016,0.016 c 0.22122,-0.49688 0.48986,-1.09598 0.80591,-1.79731 0.31604,-0.70132 0.63208,-1.40353 0.94814,-2.10664 0.31603,-0.70309 0.58467,-1.30575 0.80592,-1.80798 l 0.064,-0.11199 c 0.024,-0.0487 0.048,-0.0993 0.072,-0.152 0.024,-0.0527 0.048,-0.10333 0.072,-0.152 0.10932,-0.23999 0.22666,-0.46399 0.352,-0.67199 0.072,-0.17099 0.04,-0.33299 -0.096,-0.486 -0.13601,-0.15298 -0.32801,-0.23098 -0.57599,-0.23399 z"
           style="font-style:oblique;font-variant:normal;font-weight:bold;font-stretch:normal;font-size:16px;font-family:'Raspoutine DemiBold';-inkscape-font-specification:'Raspoutine DemiBold';fill:#000080"
           id="path3257" />
        <path
           d="m 470.16544,428.35684 c 0.44365,-0.0697 0.88831,-0.23433 1.33398,-0.494 0.44566,-0.25966 0.87032,-0.58032 1.27398,-0.96198 0.18833,-0.186 0.34366,-0.41399 0.466,-0.684 0.12232,-0.26999 0.18565,-0.56998 0.18999,-0.89998 -0.006,-0.34299 -0.0783,-0.59699 -0.21799,-0.762 -0.13967,-0.16498 -0.31234,-0.24698 -0.518,-0.24599 -0.12333,-0.012 -0.31266,0.04 -0.56799,0.156 -0.25533,0.116 -0.55666,0.368 -0.90399,0.75599 -0.253,0.30667 -0.475,0.73733 -0.66599,1.29198 -0.191,0.55466 -0.321,1.16932 -0.38999,1.84398 z m 1.51998,3.02396 c 0.28799,-0.003 0.55198,-0.0367 0.79199,-0.1 0.23999,-0.0633 0.45598,-0.13667 0.64799,-0.22 0.21366,-0.0817 0.40632,-0.0783 0.57799,0.01 0.17166,0.0883 0.24032,0.22367 0.206,0.406 -0.0557,0.17999 -0.16834,0.34799 -0.338,0.50399 -0.16967,0.156 -0.39833,0.276 -0.68599,0.36 -0.19834,0.0417 -0.42567,0.0783 -0.68199,0.10999 -0.25633,0.0317 -0.55166,0.0483 -0.88599,0.05 -1.36198,-0.0587 -2.28997,-0.41332 -2.78396,-1.06398 -0.494,-0.65066 -0.73399,-1.48532 -0.71999,-2.50397 0.0247,-0.86665 0.19133,-1.63331 0.49999,-2.29997 0.30866,-0.66665 0.61132,-1.16931 0.90799,-1.50798 0.57032,-0.67799 1.20165,-1.15398 1.89397,-1.42798 0.69232,-0.27399 1.33565,-0.40599 1.92998,-0.396 0.85631,0.0123 1.49964,0.19967 1.92997,0.56199 0.43032,0.36234 0.64565,0.82567 0.646,1.38999 -0.002,0.22933 -0.054,0.48666 -0.156,0.77199 -0.10201,0.28533 -0.24201,0.56666 -0.42,0.84399 -0.20167,0.28966 -0.45433,0.54633 -0.75799,0.76999 -0.30367,0.22366 -0.60033,0.40433 -0.88999,0.54199 -0.50233,0.247 -1.02565,0.409 -1.56998,0.48599 -0.54433,0.077 -1.11965,0.123 -1.72597,0.138 -0.008,0.033 -0.0157,0.099 -0.022,0.198 -0.006,0.099 -0.01,0.225 -0.01,0.37799 -0.0197,0.42033 0.0757,0.85166 0.28599,1.29399 0.21033,0.44233 0.65366,0.67766 1.32999,0.70599 z"
           style="font-style:oblique;font-variant:normal;font-weight:bold;font-stretch:normal;font-size:16px;font-family:'Raspoutine DemiBold';-inkscape-font-specification:'Raspoutine DemiBold';fill:#000080"
           id="path3259" />
        <path
           d="m 476.44345,426.32486 c 0.079,-0.42832 0.133,-0.78365 0.162,-1.06598 0.029,-0.28233 0.039,-0.51366 0.03,-0.69399 -0.0157,-0.20666 0.0437,-0.39333 0.178,-0.56 0.13433,-0.16665 0.34166,-0.27332 0.62199,-0.31999 0.16266,-0.016 0.30133,-0.032 0.416,-0.048 l -0.016,0 c 0.29932,-0.0483 0.55665,-0.0117 0.77199,0.11 0.21532,0.12167 0.32066,0.28233 0.31599,0.48199 -0.007,0.0273 -0.013,0.0727 -0.018,0.136 -0.005,0.0633 -0.015,0.12467 -0.03,0.184 -0.009,0.0387 -0.0193,0.0733 -0.032,0.10399 -0.0127,0.0307 -0.0233,0.0653 -0.032,0.104 0.12767,-0.16899 0.26833,-0.33099 0.422,-0.48599 0.15366,-0.15499 0.32232,-0.29699 0.50599,-0.426 0.13766,-0.088 0.28633,-0.16798 0.446,-0.23999 0.15966,-0.072 0.32032,-0.13599 0.48199,-0.192 0.30666,-0.075 0.55332,-0.033 0.73999,0.126 0.18666,0.159 0.24932,0.357 0.188,0.59399 -0.0817,0.20834 -0.25034,0.38367 -0.506,0.52599 -0.25566,0.14234 -0.54033,0.24967 -0.85398,0.322 l 0.016,0 c -0.31634,0.0717 -0.64767,0.29634 -0.99399,0.67399 -0.34633,0.37767 -0.63366,0.95833 -0.86199,1.74198 -0.12867,0.46433 -0.26333,1.09966 -0.404,1.90597 -0.14066,0.80633 -0.23533,1.49365 -0.28399,2.06198 -0.032,0.24633 -0.16,0.44966 -0.384,0.60999 -0.224,0.16033 -0.49599,0.23966 -0.81599,0.238 l -0.08,0 c -0.29199,-0.006 -0.53599,-0.0857 -0.73199,-0.238 -0.19599,-0.15233 -0.27199,-0.33966 -0.22799,-0.56199 0.041,-0.138 0.079,-0.274 0.114,-0.408 0.035,-0.13399 0.061,-0.25399 0.078,-0.35999 z"
           style="font-style:oblique;font-variant:normal;font-weight:bold;font-stretch:normal;font-size:16px;font-family:'Raspoutine DemiBold';-inkscape-font-specification:'Raspoutine DemiBold';fill:#000080"
           id="path3261" />
        <path
           d="m 484.74792,421.31693 c -6.7e-4,0.287 -0.11934,0.577 -0.356,0.86999 -0.23667,0.293 -0.58733,0.451 -1.05199,0.47399 -0.28399,0.002 -0.53599,-0.0657 -0.75599,-0.202 -0.22,-0.13632 -0.33599,-0.35165 -0.34799,-0.64599 -0.002,-0.27165 0.114,-0.55231 0.34799,-0.84199 0.234,-0.28965 0.59799,-0.44631 1.09199,-0.46999 0.28966,10e-6 0.53832,0.068 0.74599,0.204 0.20766,0.136 0.31633,0.34 0.326,0.61199 z m -1.27999,7.02391 c -0.14233,0.79466 -0.24966,1.44131 -0.32199,1.93997 -0.0723,0.49866 -0.11967,0.88132 -0.142,1.14799 -0.0267,0.23566 -0.15734,0.42432 -0.392,0.56599 -0.23466,0.14166 -0.50932,0.21433 -0.82399,0.218 l -0.12799,0 c -0.263,-0.003 -0.477,-0.0893 -0.642,-0.26 -0.16499,-0.17066 -0.23899,-0.36133 -0.22199,-0.57199 6.6e-4,-0.008 0.003,-0.0197 0.008,-0.034 0.005,-0.0143 0.007,-0.0297 0.008,-0.046 0.0407,-0.166 0.0873,-0.366 0.14,-0.59999 0.0527,-0.234 0.10733,-0.514 0.16399,-0.83999 l 0.272,-1.56798 c 0.19033,-1.04332 0.32566,-1.85664 0.40599,-2.43997 0.0803,-0.58332 0.11567,-1.01265 0.106,-1.28798 -0.013,-0.20266 0.037,-0.39333 0.15,-0.572 0.113,-0.17865 0.319,-0.28132 0.61799,-0.30799 0.11033,-0.016 0.20966,-0.032 0.298,-0.048 0.0883,-0.016 0.17566,-0.032 0.262,-0.048 0.28066,-0.0457 0.51532,0.006 0.70399,0.154 0.18866,0.14834 0.27932,0.33167 0.27199,0.54999 -0.008,0.0337 -0.0157,0.0743 -0.022,0.122 -0.006,0.0477 -0.01,0.0923 -0.01,0.134 -0.032,0.143 -0.068,0.313 -0.10799,0.50999 -0.04,0.197 -0.084,0.427 -0.132,0.68999 z"
           style="font-style:oblique;font-variant:normal;font-weight:bold;font-stretch:normal;font-size:16px;font-family:'Raspoutine DemiBold';-inkscape-font-specification:'Raspoutine DemiBold';fill:#000080"
           id="path3263" />
        <path
           d="m 485.34821,426.58086 c 0.059,-0.33499 0.11299,-0.68499 0.16199,-1.04999 0.049,-0.36499 0.075,-0.70298 0.078,-1.01398 l 0,-0.096 c -0.01,-0.19233 0.046,-0.37166 0.168,-0.538 0.122,-0.16632 0.32199,-0.26965 0.59999,-0.30999 0.0787,-0.008 0.15333,-0.0163 0.224,-0.026 0.0707,-0.01 0.14533,-0.0223 0.224,-0.038 0.009,-6.6e-4 0.0227,-0.003 0.04,-0.008 0.0173,-0.005 0.0307,-0.007 0.04,-0.008 0.26899,-0.0247 0.50699,0.0287 0.71399,0.16 0.20699,0.13134 0.30499,0.29667 0.29399,0.49599 -0.0103,0.0697 -0.01,0.0863 0.002,0.05 0.0117,-0.0363 3.3e-4,0.0323 -0.034,0.206 0.0407,-0.0487 0.0873,-0.0993 0.14,-0.152 0.0527,-0.0527 0.10733,-0.10332 0.164,-0.152 0.32266,-0.25032 0.68932,-0.44565 1.09999,-0.58599 0.41065,-0.14032 0.84931,-0.21166 1.31598,-0.214 0.53965,-0.0133 1.06031,0.10134 1.56198,0.344 0.50165,0.24267 0.77031,0.69333 0.80599,1.35198 6.6e-4,0.13734 -0.0127,0.31067 -0.04,0.51999 -0.0273,0.20934 -0.0727,0.49467 -0.136,0.85599 -0.032,0.17067 -0.064,0.35334 -0.096,0.54799 -0.032,0.19467 -0.064,0.38534 -0.096,0.572 -0.0327,0.191 -0.0673,0.377 -0.104,0.55799 -0.0367,0.181 -0.0713,0.363 -0.10399,0.54599 -0.0697,0.367 -0.14634,0.817 -0.23,1.34999 -0.0837,0.53299 -0.14034,1.01098 -0.17,1.43398 -0.0257,0.24466 -0.15434,0.44333 -0.386,0.59599 -0.23167,0.15266 -0.50833,0.23133 -0.82998,0.236 l -0.144,0 c -0.27534,6.6e-4 -0.50467,-0.0727 -0.68799,-0.22 -0.18334,-0.14733 -0.25267,-0.32466 -0.208,-0.53199 0.079,-0.24533 0.16499,-0.58666 0.258,-1.02399 0.093,-0.43733 0.19899,-1.03465 0.31799,-1.79198 l 0.192,-1.05598 c 0.073,-0.39199 0.13099,-0.74399 0.174,-1.05599 0.043,-0.31199 0.065,-0.58399 0.066,-0.81599 0.005,-0.38132 -0.0647,-0.65865 -0.208,-0.83199 -0.14334,-0.17332 -0.38867,-0.25865 -0.73599,-0.256 -0.31234,0.009 -0.63166,0.11534 -0.95799,0.32 -0.32633,0.20467 -0.60966,0.45533 -0.84999,0.75199 -0.24267,0.338 -0.42533,0.758 -0.54799,1.25998 -0.12267,0.502 -0.21733,0.978 -0.284,1.42799 l -0.28799,1.87197 c -0.0393,0.246 -0.0687,0.462 -0.088,0.64799 -0.0193,0.186 -0.0327,0.354 -0.04,0.504 -0.0267,0.23566 -0.15734,0.42432 -0.392,0.56599 -0.23466,0.14166 -0.50933,0.21433 -0.82399,0.218 l -0.12799,0 c -0.28167,-6.7e-4 -0.51433,-0.0753 -0.698,-0.224 -0.18366,-0.14866 -0.26033,-0.31933 -0.22999,-0.51199 0.079,-0.28567 0.14899,-0.58233 0.20999,-0.88999 0.061,-0.30766 0.119,-0.64033 0.174,-0.99799 z"
           style="font-style:oblique;font-variant:normal;font-weight:bold;font-stretch:normal;font-size:16px;font-family:'Raspoutine DemiBold';-inkscape-font-specification:'Raspoutine DemiBold';fill:#000080"
           id="path3265" />
        <path
           d="m 498.63615,424.43689 c -0.84345,0.0349 -1.48542,0.34736 -1.9259,0.93747 -0.44049,0.59012 -0.73876,1.24868 -0.8948,1.97567 -0.15605,0.72701 -0.22914,1.31328 -0.21926,1.7588 -0.002,0.209 0.0143,0.43499 0.05,0.67799 0.0357,0.243 0.10433,0.44899 0.206,0.61799 0.24266,0.40266 0.52532,0.60533 0.84799,0.60799 0.27699,-0.011 0.55498,-0.125 0.83398,-0.34199 0.279,-0.217 0.52899,-0.471 0.74999,-0.76199 0.23,-0.36933 0.44599,-0.95465 0.648,-1.75598 0.20199,-0.80132 0.44998,-1.95464 0.74399,-3.45996 l 0.048,0 c -0.13634,-0.0596 -0.29567,-0.11632 -0.478,-0.16999 -0.18233,-0.0537 -0.38566,-0.0823 -0.60999,-0.086 z m 1.96798,6.47991 c -0.16134,1.15032 -0.43467,2.14564 -0.81999,2.98596 -0.38534,0.84032 -1.16266,1.48765 -2.33197,1.94198 l 0.016,0 c -0.40667,0.15099 -0.84933,0.26099 -1.32799,0.33 -0.47866,0.069 -0.95332,0.10299 -1.42398,0.10199 -0.49866,0 -0.90932,-0.032 -1.23198,-0.096 -0.224,-0.0637 -0.396,-0.18034 -0.516,-0.35 -0.12,-0.16967 -0.13999,-0.34633 -0.06,-0.52999 0.11167,-0.20967 0.28833,-0.35034 0.53,-0.422 0.24166,-0.0717 0.50232,-0.0643 0.78199,0.022 0.13466,0.041 0.28133,0.075 0.43999,0.102 0.15866,0.027 0.33733,0.041 0.53599,0.042 0.397,0.003 0.78699,-0.067 1.16999,-0.21 0.38299,-0.143 0.72899,-0.37699 1.03799,-0.70199 0.25899,-0.24333 0.47699,-0.64066 0.65399,-1.19198 0.17699,-0.55133 0.34299,-1.23665 0.49799,-2.05598 -0.28333,0.41467 -0.62466,0.77333 -1.02399,1.07599 -0.39933,0.30266 -0.88465,0.46133 -1.45598,0.47599 -0.53133,-0.005 -0.98865,-0.10333 -1.37198,-0.29599 -0.38333,-0.19267 -0.67266,-0.45133 -0.86799,-0.77599 l 0.016,0 c -0.216,-0.35066 -0.35199,-0.67733 -0.40799,-0.97999 -0.056,-0.30266 -0.08,-0.54132 -0.072,-0.71599 10e-4,-0.88897 0.20869,-1.81676 0.6228,-2.78337 0.41412,-0.9666 1.02824,-1.7901 1.84235,-2.47049 0.81411,-0.68038 1.8217,-1.03573 3.02278,-1.06606 0.44132,0.005 0.80265,0.047 1.08398,0.126 0.28133,0.079 0.52266,0.16501 0.72399,0.258 l -0.048,0 c 0.008,6.7e-4 0.0157,0.003 0.022,0.008 0.006,0.005 0.01,0.007 0.01,0.008 0.057,-0.0243 0.103,-0.0437 0.138,-0.058 0.035,-0.0143 0.053,-0.0217 0.054,-0.022 0.30966,-0.093 0.57032,-0.067 0.78199,0.078 0.21166,0.145 0.29232,0.343 0.242,0.59399 -0.0703,0.24367 -0.14567,0.55233 -0.226,0.92599 -0.0803,0.37366 -0.17567,0.88632 -0.28599,1.53798 z"
           style="font-style:oblique;font-variant:normal;font-weight:bold;font-stretch:normal;font-size:16px;font-family:'Raspoutine DemiBold';-inkscape-font-specification:'Raspoutine DemiBold';fill:#000080"
           id="path3267" />
        <path
           d="m 509.60392,426.90086 c -0.12867,6.7e-4 -0.24734,0.003 -0.356,0.008 -0.10867,0.005 -0.20333,0.007 -0.28399,0.008 l -0.544,2.94397 c -0.032,0.15933 -0.056,0.30066 -0.072,0.42399 -0.016,0.12333 -0.024,0.23267 -0.024,0.328 -0.007,0.253 0.0867,0.40699 0.28,0.46199 0.19333,0.055 0.52666,0.077 0.99999,0.066 0.23932,0.002 0.55665,-0.006 0.95199,-0.024 0.39532,-0.018 0.77665,-0.058 1.14398,-0.12 0.009,-6.6e-4 0.023,-0.003 0.042,-0.008 0.019,-0.005 0.037,-0.007 0.054,-0.008 -0.026,-3.3e-4 -0.018,-0.004 0.024,-0.01 0.042,-0.006 0.082,-0.0137 0.12,-0.022 0.0167,-0.008 0.0353,-0.0157 0.056,-0.022 0.0207,-0.006 0.0393,-0.01 0.056,-0.01 0.25899,-0.0507 0.47698,-0.0253 0.65399,0.076 0.17699,0.10134 0.24699,0.24667 0.21,0.436 -0.0853,0.26166 -0.25468,0.47432 -0.508,0.63799 -0.25333,0.16366 -0.55866,0.24433 -0.91599,0.242 l -1.67997,0 c -0.11301,-6.7e-4 -0.23101,-0.003 -0.354,-0.008 -0.123,-0.005 -0.245,-0.007 -0.366,-0.008 -0.35499,0.008 -0.76099,0.0123 -1.21798,0.014 -0.457,0.002 -0.85099,0.002 -1.18198,0.002 -0.30867,-0.004 -0.53933,-0.0997 -0.692,-0.286 -0.15266,-0.18633 -0.19933,-0.38966 -0.13999,-0.60999 0.072,-0.242 0.15599,-0.57399 0.25199,-0.99599 0.096,-0.42199 0.204,-0.96999 0.324,-1.64398 l 0.44799,-2.44797 c 0.21367,-1.17331 0.37033,-2.10663 0.47,-2.79996 0.0997,-0.69332 0.15633,-1.21064 0.16999,-1.55198 0.026,-0.25432 0.154,-0.46965 0.384,-0.64599 0.22999,-0.17632 0.50199,-0.27566 0.81599,-0.298 0.33866,0.008 0.70932,0.0123 1.11198,0.014 0.40266,0.002 0.77332,0.002 1.11199,0.002 0.45832,-3.2e-4 0.89765,-0.004 1.31798,-0.01 0.42032,-0.006 0.80765,-0.0136 1.16199,-0.022 0.23365,0.0147 0.43432,0.0893 0.60199,0.224 0.16766,0.13467 0.24432,0.28934 0.23,0.46399 -0.048,0.18868 -0.18001,0.33534 -0.396,0.44 -0.216,0.10467 -0.468,0.13934 -0.75599,0.104 -0.11334,-0.0173 -0.29067,-0.0347 -0.53199,-0.052 -0.24134,-0.0173 -0.53867,-0.0267 -0.89199,-0.028 -0.31033,3.4e-4 -0.61766,0.004 -0.92199,0.01 -0.30433,0.006 -0.56766,0.0137 -0.78999,0.022 -0.016,6.7e-4 -0.032,0.003 -0.048,0.008 -0.016,0.005 -0.032,0.007 -0.048,0.008 -0.0553,0.28067 -0.10866,0.56733 -0.15999,0.85998 -0.0513,0.29268 -0.10467,0.58734 -0.16,0.88399 -0.0567,0.30267 -0.11534,0.59734 -0.176,0.88399 -0.0607,0.28667 -0.11933,0.57333 -0.176,0.85999 l 0.432,0 c 0.032,-6.6e-4 0.064,-0.003 0.096,-0.008 0.032,-0.005 0.064,-0.007 0.096,-0.008 l 0.17599,0 c 0.12333,-3.3e-4 0.24866,-0.004 0.376,-0.01 0.12732,-0.006 0.23666,-0.0137 0.32799,-0.022 0.28566,-0.0137 0.53432,0.0337 0.74599,0.142 0.21166,0.10834 0.30433,0.26367 0.278,0.46599 -0.058,0.22401 -0.23,0.392 -0.51599,0.504 -0.286,0.112 -0.578,0.168 -0.87599,0.16799 -0.10867,-0.008 -0.23134,-0.0157 -0.368,-0.022 -0.13667,-0.006 -0.25933,-0.01 -0.36799,-0.01 z"
           style="font-style:oblique;font-variant:normal;font-weight:bold;font-stretch:normal;font-size:16px;font-family:'Raspoutine DemiBold';-inkscape-font-specification:'Raspoutine DemiBold';fill:#000080"
           id="path3269" />
        <path
           d="m 515.95594,429.17283 c 0.002,0.56232 0.0943,1.01765 0.278,1.36598 0.18366,0.34833 0.44832,0.52766 0.79399,0.53799 0.23099,0.009 0.49699,-0.0967 0.79799,-0.31599 0.30099,-0.21933 0.59498,-0.60466 0.88198,-1.15599 0.19433,-0.36433 0.37366,-0.89965 0.538,-1.60598 0.16432,-0.70632 0.39565,-1.84564 0.69399,-3.41796 -0.15034,-0.041 -0.29367,-0.075 -0.43,-0.10199 -0.13633,-0.027 -0.27567,-0.041 -0.41799,-0.042 -0.83456,0.0398 -1.48008,0.37442 -1.93657,1.00384 -0.45649,0.62943 -0.77253,1.31485 -0.94813,2.05627 -0.17561,0.74142 -0.25936,1.30003 -0.25126,1.67583 z m 5.39193,-0.73599 c -0.008,0.0713 -0.0163,0.14066 -0.026,0.20799 -0.01,0.0673 -0.0223,0.13667 -0.038,0.208 -0.0763,0.43466 -0.14767,0.88132 -0.214,1.33998 -0.0663,0.45867 -0.10167,0.86533 -0.106,1.21999 -0.0117,0.22333 -0.10833,0.41666 -0.28999,0.57999 -0.18167,0.16333 -0.42634,0.25266 -0.73399,0.268 -0.316,-0.006 -0.584,-0.09 -0.80399,-0.252 -0.22,-0.162 -0.32,-0.366 -0.3,-0.61199 0.005,-0.0653 0.0107,-0.12267 0.016,-0.172 0.005,-0.0493 0.0267,-0.17866 0.064,-0.388 -0.289,0.42367 -0.631,0.79233 -1.02599,1.10599 -0.39499,0.31366 -0.88499,0.47833 -1.46998,0.49399 -0.74199,0 -1.36998,-0.22799 -1.88397,-0.68399 -0.514,-0.45599 -0.78199,-1.13998 -0.80399,-2.05197 -0.0207,-0.26166 0.0767,-0.83432 0.29199,-1.71798 0.21533,-0.88365 0.67266,-1.8043 1.37199,-2.76196 0.45665,-0.55266 1.01931,-0.99532 1.68797,-1.32799 0.66866,-0.33265 1.39132,-0.50331 2.16798,-0.51199 0.18332,10e-4 0.34865,0.011 0.49599,0.03 0.14733,0.019 0.28066,0.041 0.4,0.066 0.0723,-0.37199 0.12365,-0.67998 0.15399,-0.92399 0.0303,-0.24399 0.0377,-0.44798 0.022,-0.61199 -0.006,-0.21565 0.0663,-0.41232 0.218,-0.58999 0.15166,-0.17766 0.37232,-0.29032 0.66199,-0.338 0.0263,-0.008 0.0617,-0.016 0.106,-0.024 0.0443,-0.008 0.0837,-0.016 0.118,-0.024 0.32765,-0.0516 0.61232,-0.0203 0.85399,0.094 0.24165,0.11434 0.34632,0.28567 0.31399,0.51399 -0.0303,0.088 -0.0537,0.18801 -0.07,0.3 -0.0163,0.11201 -0.0357,0.23601 -0.058,0.372 -0.032,0.15734 -0.064,0.33867 -0.096,0.54399 -0.009,0.0563 -0.0193,0.11567 -0.032,0.178 -0.0127,0.0623 -0.0233,0.12567 -0.032,0.18999 -0.032,0.14401 -0.064,0.30401 -0.096,0.48 z"
           style="font-style:oblique;font-variant:normal;font-weight:bold;font-stretch:normal;font-size:16px;font-family:'Raspoutine DemiBold';-inkscape-font-specification:'Raspoutine DemiBold';fill:#000080"
           id="path3271" />
        <path
           d="m 525.04343,428.45284 c -0.087,0.39899 -0.149,0.71299 -0.18599,0.94198 -0.037,0.229 -0.055,0.427 -0.054,0.594 -0.004,0.30433 0.0563,0.55966 0.18199,0.76599 0.12567,0.20633 0.34233,0.31366 0.65,0.32199 0.15099,0.017 0.39699,-0.049 0.73799,-0.198 0.34099,-0.14899 0.68698,-0.48299 1.03798,-1.00198 l -0.016,0 c 0.17233,-0.32 0.34366,-0.79199 0.514,-1.41599 0.17032,-0.62398 0.31365,-1.25597 0.42999,-1.89597 0.0873,-0.46232 0.15266,-0.85365 0.196,-1.17399 0.0433,-0.32032 0.0687,-0.57965 0.076,-0.77799 0.0113,-0.23798 0.10466,-0.44998 0.27999,-0.63599 0.17533,-0.18599 0.41266,-0.30998 0.712,-0.37199 0.01,3.4e-4 0.0263,-3.3e-4 0.05,-0.002 0.0237,-0.002 0.0443,-0.006 0.062,-0.014 l -0.032,0.032 c 0.0427,-0.0243 0.0933,-0.0437 0.152,-0.058 0.0587,-0.0143 0.10933,-0.0217 0.152,-0.022 0.26166,-0.0233 0.49432,0.0313 0.69799,0.164 0.20366,0.13267 0.29632,0.29133 0.278,0.47599 -0.11201,0.396 -0.22801,0.864 -0.348,1.40398 -0.12,0.54 -0.244,1.17599 -0.37199,1.90798 -0.19767,1.09032 -0.33834,1.93764 -0.422,2.54196 -0.0837,0.60433 -0.12434,1.04766 -0.122,1.32999 l 0,0.128 c -0.002,0.22166 -0.10634,0.40632 -0.31399,0.55399 -0.20767,0.14766 -0.46034,0.22433 -0.75799,0.23 -0.314,-0.007 -0.578,-0.093 -0.79199,-0.258 -0.214,-0.165 -0.318,-0.367 -0.312,-0.60599 l 0,-0.224 c -0.0947,0.13533 -0.19733,0.26066 -0.30799,0.37599 -0.11067,0.11534 -0.23734,0.22467 -0.38,0.328 -0.381,0.23333 -0.76699,0.38666 -1.15798,0.45999 -0.391,0.0733 -0.661,0.10667 -0.80999,0.1 -0.628,3.4e-4 -1.16399,-0.14433 -1.60798,-0.43399 -0.444,-0.28966 -0.67599,-0.72632 -0.69599,-1.30998 -6.7e-4,-0.10433 0.009,-0.23167 0.028,-0.382 0.0193,-0.15033 0.0527,-0.36966 0.1,-0.65799 l 0.79999,-4.23995 c 0.0613,-0.30665 0.0987,-0.55731 0.112,-0.75199 0.0123,-0.21699 0.0877,-0.42298 0.226,-0.61799 0.13833,-0.19499 0.36166,-0.32499 0.66999,-0.38999 l -0.032,0 c 0.0167,-0.008 0.0393,-0.0123 0.068,-0.014 0.0287,-0.002 0.0593,-0.002 0.092,-0.002 0.009,-6.6e-4 0.0227,-0.003 0.04,-0.008 0.0173,-0.005 0.0307,-0.007 0.04,-0.008 l -0.032,0 c 0.0247,-0.008 0.0553,-0.0157 0.092,-0.022 0.0367,-0.006 0.0753,-0.01 0.116,-0.01 0.28566,-0.0233 0.53432,0.0393 0.74599,0.188 0.21166,0.14867 0.30432,0.33133 0.27799,0.54799 -0.0777,0.308 -0.14233,0.568 -0.19399,0.77999 -0.0517,0.212 -0.10434,0.448 -0.158,0.70799 -0.009,0.041 -0.0193,0.087 -0.032,0.138 -0.0127,0.051 -0.0233,0.101 -0.032,0.15 z"
           style="font-style:oblique;font-variant:normal;font-weight:bold;font-stretch:normal;font-size:16px;font-family:'Raspoutine DemiBold';-inkscape-font-specification:'Raspoutine DemiBold';fill:#000080"
           id="path3273" />
        <path
           d="m 538.01888,423.4609 c 0.24699,0.0663 0.41299,0.18967 0.49799,0.36999 0.085,0.18034 0.095,0.35567 0.03,0.526 -0.0507,0.12667 -0.14134,0.21734 -0.27199,0.27199 -0.13068,0.0547 -0.28534,0.0813 -0.464,0.08 -0.21067,10e-6 -0.38133,-0.032 -0.51199,-0.096 l 0.016,0 c -0.0957,-0.0327 -0.19634,-0.0593 -0.302,-0.08 -0.10567,-0.0207 -0.21833,-0.0313 -0.33799,-0.032 -0.98333,0.044 -1.74465,0.492 -2.28397,1.34398 -0.53933,0.85199 -0.81266,1.84398 -0.81999,2.97596 -0.01,0.40633 0.0417,0.81366 0.15399,1.22198 0.11233,0.40833 0.34366,0.73166 0.694,0.96999 0.20799,0.13433 0.41199,0.22967 0.61199,0.286 0.19999,0.0563 0.39599,0.0837 0.58799,0.082 0.17499,-3.3e-4 0.34099,-0.0157 0.49799,-0.046 0.157,-0.0303 0.31099,-0.0737 0.462,-0.13 0.23866,-0.0547 0.42532,-0.0253 0.55999,0.088 0.13466,0.11333 0.17733,0.25466 0.128,0.42399 -0.078,0.186 -0.222,0.342 -0.432,0.468 -0.21,0.126 -0.45,0.20999 -0.71999,0.25199 -0.12167,0.016 -0.25433,0.028 -0.39799,0.036 -0.14367,0.008 -0.28834,0.012 -0.434,0.012 -1.27532,-0.012 -2.26864,-0.33199 -2.97996,-0.95998 -0.71132,-0.628 -1.07265,-1.49198 -1.08398,-2.59197 -10e-4,-0.8547 0.20404,-1.70704 0.61628,-2.55701 0.41224,-0.84995 1.03959,-1.56125 1.88205,-2.13389 0.84246,-0.57263 1.90832,-0.8703 3.19759,-0.89303 0.23899,6.8e-4 0.44899,0.0113 0.62999,0.032 0.181,0.0207 0.33899,0.0473 0.474,0.08 z"
           style="font-style:oblique;font-variant:normal;font-weight:bold;font-stretch:normal;font-size:16px;font-family:'Raspoutine DemiBold';-inkscape-font-specification:'Raspoutine DemiBold';fill:#000080"
           id="path3275" />
        <path
           d="m 544.09839,424.62888 c -0.14467,-0.0506 -0.30334,-0.0973 -0.476,-0.13999 -0.17267,-0.0427 -0.35533,-0.0653 -0.54799,-0.068 -0.80355,0.0342 -1.42932,0.34627 -1.87731,0.93628 -0.448,0.59002 -0.76088,1.25293 -0.93865,1.98872 -0.17778,0.73579 -0.26311,1.33944 -0.256,1.81094 -0.004,0.55399 0.08,1.00199 0.252,1.34398 0.17199,0.342 0.45599,0.51799 0.85199,0.52799 0.23566,0.006 0.49232,-0.07 0.76999,-0.228 0.27765,-0.15799 0.55432,-0.43399 0.82998,-0.82798 0.21266,-0.289 0.39533,-0.68299 0.548,-1.18199 0.15266,-0.49899 0.29532,-1.14498 0.42799,-1.93797 z m 1.21598,-1.03998 c 0.29899,-0.0747 0.54899,-0.0333 0.74999,0.124 0.20099,0.15734 0.28699,0.35067 0.258,0.57999 -0.0553,0.25634 -0.12868,0.60766 -0.22,1.05398 -0.0913,0.44634 -0.20467,1.03366 -0.33999,1.76198 l -0.288,1.56798 c -0.11267,0.665 -0.19934,1.25099 -0.26,1.75798 -0.0607,0.50699 -0.0913,0.88099 -0.092,1.12199 -0.0107,0.20333 -0.12134,0.36866 -0.33199,0.49599 -0.21067,0.12733 -0.45734,0.19666 -0.73999,0.208 -0.28901,0.002 -0.531,-0.066 -0.72599,-0.204 -0.19501,-0.138 -0.289,-0.31 -0.282,-0.51599 0.008,-0.13867 0.0237,-0.29333 0.046,-0.464 0.0223,-0.17066 0.0497,-0.34133 0.082,-0.51199 -0.32367,0.46999 -0.70833,0.89399 -1.15399,1.27198 -0.44566,0.378 -0.97832,0.57799 -1.59798,0.59999 -0.69099,0.002 -1.29698,-0.21799 -1.81797,-0.65999 -0.521,-0.44199 -0.79499,-1.11798 -0.82199,-2.02797 -0.009,-0.26528 0.0571,-0.71248 0.19851,-1.34161 0.14143,-0.62913 0.41264,-1.32048 0.81362,-2.07405 0.40098,-0.75357 0.98626,-1.44965 1.75583,-2.08827 0.19166,-0.16332 0.52033,-0.34865 0.98599,-0.55599 0.46566,-0.20733 1.07031,-0.32066 1.81398,-0.34 0.37132,0.003 0.69265,0.037 0.96398,0.102 0.27133,0.065 0.52066,0.14301 0.74799,0.234 z"
           style="font-style:oblique;font-variant:normal;font-weight:bold;font-stretch:normal;font-size:16px;font-family:'Raspoutine DemiBold';-inkscape-font-specification:'Raspoutine DemiBold';fill:#000080"
           id="path3277" />
        <path
           d="m 550.20992,423.3489 c 0.0543,-0.33465 0.10966,-0.62132 0.166,-0.85999 0.0563,-0.23865 0.12366,-0.48532 0.202,-0.73999 0.0407,-0.21432 -0.0487,-0.38165 -0.268,-0.50199 -0.21934,-0.12032 -0.47667,-0.15566 -0.77199,-0.106 -0.34867,0.0847 -0.63133,0.22734 -0.84799,0.42799 -0.21667,0.20068 -0.33933,0.43134 -0.368,0.69199 -0.015,0.15901 -0.033,0.32501 -0.054,0.498 -0.021,0.17301 -0.051,0.359 -0.09,0.55799 -0.211,0.004 -0.385,0.06 -0.522,0.168 -0.137,0.10801 -0.219,0.244 -0.24599,0.40799 -0.019,0.13068 0.023,0.24534 0.12599,0.344 0.103,0.0987 0.237,0.16534 0.402,0.2 l -1.00799,5.31193 c -0.041,0.223 -0.075,0.425 -0.102,0.60599 -0.027,0.181 -0.041,0.347 -0.042,0.49799 3.4e-4,0.158 0.0317,0.314 0.094,0.468 0.0623,0.154 0.15367,0.31799 0.274,0.49199 0.12133,0.17367 0.35066,0.32233 0.68799,0.446 0.33733,0.12366 0.77465,0.18833 1.31198,0.19399 0.0593,3.4e-4 0.12867,-3.3e-4 0.208,-0.002 0.0793,-0.002 0.14866,-0.006 0.208,-0.014 0.29132,-0.0447 0.53265,-0.14333 0.72399,-0.29599 0.19133,-0.15267 0.31266,-0.33133 0.36399,-0.536 0.0147,-0.14299 -0.0587,-0.26499 -0.21999,-0.36599 -0.16134,-0.101 -0.35467,-0.139 -0.58,-0.114 -0.128,0.032 -0.24,0.048 -0.33599,0.048 -0.17934,0.002 -0.32467,-0.0623 -0.436,-0.194 -0.11133,-0.13166 -0.16866,-0.34433 -0.17199,-0.63799 0.002,-0.23499 0.0303,-0.52499 0.086,-0.86999 0.0557,-0.34499 0.12832,-0.72699 0.21799,-1.14598 0.025,-0.12133 0.055,-0.26266 0.09,-0.424 0.035,-0.16132 0.069,-0.33466 0.102,-0.51999 0.0407,-0.21799 0.0833,-0.44199 0.128,-0.67199 0.0447,-0.22999 0.0873,-0.45399 0.128,-0.67199 0.0483,-0.24199 0.0957,-0.47799 0.142,-0.708 0.0463,-0.22999 0.0897,-0.44198 0.12999,-0.63599 0.008,-0.0463 0.016,-0.0856 0.024,-0.118 0.008,-0.0323 0.016,-0.0677 0.024,-0.10599 0.22133,-0.003 0.48266,0.003 0.78399,0.016 0.27033,-0.002 0.50566,-0.054 0.70599,-0.156 0.20033,-0.10199 0.32766,-0.24199 0.382,-0.42 0.0247,-0.16765 -0.0407,-0.31232 -0.196,-0.43399 -0.15534,-0.12166 -0.35667,-0.17432 -0.60399,-0.158 -0.16267,0.0133 -0.34933,0.0187 -0.55999,0.016 -0.04,6.8e-4 -0.08,0.003 -0.12,0.008 -0.04,0.005 -0.08,0.007 -0.12,0.008 z"
           style="font-style:oblique;font-variant:normal;font-weight:bold;font-stretch:normal;font-size:16px;font-family:'Raspoutine DemiBold';-inkscape-font-specification:'Raspoutine DemiBold';fill:#000080"
           id="path3279" />
        <path
           d="m 555.18542,421.31693 c -6.7e-4,0.287 -0.11934,0.577 -0.356,0.86999 -0.23667,0.293 -0.58733,0.451 -1.05199,0.47399 -0.28399,0.002 -0.53599,-0.0657 -0.75599,-0.202 -0.22,-0.13632 -0.33599,-0.35165 -0.34799,-0.64599 -0.002,-0.27165 0.114,-0.55231 0.34799,-0.84199 0.234,-0.28965 0.59799,-0.44631 1.09199,-0.46999 0.28966,10e-6 0.53832,0.068 0.74599,0.204 0.20766,0.136 0.31633,0.34 0.326,0.61199 z m -1.27999,7.02391 c -0.14233,0.79466 -0.24966,1.44131 -0.32199,1.93997 -0.0723,0.49866 -0.11967,0.88132 -0.142,1.14799 -0.0267,0.23566 -0.15734,0.42432 -0.392,0.56599 -0.23466,0.14166 -0.50932,0.21433 -0.82399,0.218 l -0.12799,0 c -0.263,-0.003 -0.477,-0.0893 -0.642,-0.26 -0.16499,-0.17066 -0.23899,-0.36133 -0.22199,-0.57199 6.6e-4,-0.008 0.003,-0.0197 0.008,-0.034 0.005,-0.0143 0.007,-0.0297 0.008,-0.046 0.0407,-0.166 0.0873,-0.366 0.14,-0.59999 0.0527,-0.234 0.10733,-0.514 0.16399,-0.83999 l 0.272,-1.56798 c 0.19033,-1.04332 0.32566,-1.85664 0.40599,-2.43997 0.0803,-0.58332 0.11567,-1.01265 0.106,-1.28798 -0.013,-0.20266 0.037,-0.39333 0.15,-0.572 0.113,-0.17865 0.319,-0.28132 0.61799,-0.30799 0.11033,-0.016 0.20966,-0.032 0.298,-0.048 0.0883,-0.016 0.17566,-0.032 0.262,-0.048 0.28066,-0.0457 0.51532,0.006 0.70399,0.154 0.18866,0.14834 0.27932,0.33167 0.27199,0.54999 -0.008,0.0337 -0.0157,0.0743 -0.022,0.122 -0.006,0.0477 -0.01,0.0923 -0.01,0.134 -0.032,0.143 -0.068,0.313 -0.10799,0.50999 -0.04,0.197 -0.084,0.427 -0.132,0.68999 z"
           style="font-style:oblique;font-variant:normal;font-weight:bold;font-stretch:normal;font-size:16px;font-family:'Raspoutine DemiBold';-inkscape-font-specification:'Raspoutine DemiBold';fill:#000080"
           id="path3281" />
        <path
           d="m 560.93764,424.83688 c -0.0957,-0.0943 -0.22434,-0.18566 -0.386,-0.274 -0.16167,-0.0883 -0.35833,-0.13565 -0.58999,-0.14199 -0.75545,0.0379 -1.34053,0.37274 -1.75524,1.00443 -0.41471,0.6317 -0.70231,1.33273 -0.8628,2.10308 -0.16049,0.77037 -0.23713,1.38251 -0.22992,1.83642 0.0113,0.74266 0.14866,1.26932 0.41199,1.57998 0.26333,0.31067 0.58466,0.46133 0.96399,0.452 0.83139,-0.0486 1.45479,-0.4314 1.8702,-1.14843 0.4154,-0.71703 0.69035,-1.47672 0.82488,-2.27908 0.13451,-0.80236 0.19614,-1.35583 0.18488,-1.66043 0.008,-0.21232 -0.012,-0.45965 -0.06,-0.74199 -0.048,-0.28232 -0.172,-0.52565 -0.37199,-0.72999 z m 1.82398,-0.67199 c 0.39998,0.428 0.64798,0.844 0.74399,1.24798 0.096,0.40401 0.13599,0.724 0.11999,0.95999 0.003,0.86103 -0.18222,1.75761 -0.55465,2.68975 -0.37245,0.93213 -0.94844,1.7256 -1.72798,2.38041 -0.77955,0.65481 -1.77865,0.99673 -2.9973,1.02576 -0.46966,0.001 -0.91832,-0.065 -1.34598,-0.19799 -0.42766,-0.133 -0.80032,-0.339 -1.11799,-0.618 -0.20933,-0.17633 -0.42266,-0.45966 -0.63999,-0.84999 -0.21733,-0.39032 -0.33466,-0.93365 -0.35199,-1.62997 -10e-4,-0.88305 0.1913,-1.76936 0.57717,-2.65893 0.38588,-0.88957 0.97174,-1.63602 1.75761,-2.23938 0.78586,-0.60334 1.77825,-0.91722 2.97715,-0.94162 0.57065,-3.2e-4 1.07331,0.0683 1.50798,0.206 0.43465,0.13767 0.78531,0.34634 1.05199,0.62599 z"
           style="font-style:oblique;font-variant:normal;font-weight:bold;font-stretch:normal;font-size:16px;font-family:'Raspoutine DemiBold';-inkscape-font-specification:'Raspoutine DemiBold';fill:#000080"
           id="path3283" />
        <path
           d="m 564.78571,426.58086 c 0.059,-0.33499 0.11299,-0.68499 0.16199,-1.04999 0.049,-0.36499 0.075,-0.70298 0.078,-1.01398 l 0,-0.096 c -0.01,-0.19233 0.046,-0.37166 0.168,-0.538 0.122,-0.16632 0.32199,-0.26965 0.59999,-0.30999 0.0787,-0.008 0.15333,-0.0163 0.224,-0.026 0.0707,-0.01 0.14533,-0.0223 0.224,-0.038 0.009,-6.6e-4 0.0227,-0.003 0.04,-0.008 0.0173,-0.005 0.0307,-0.007 0.04,-0.008 0.26899,-0.0247 0.50699,0.0287 0.71399,0.16 0.20699,0.13134 0.30499,0.29667 0.29399,0.49599 -0.0103,0.0697 -0.01,0.0863 0.002,0.05 0.0117,-0.0363 3.3e-4,0.0323 -0.034,0.206 0.0407,-0.0487 0.0873,-0.0993 0.14,-0.152 0.0527,-0.0527 0.10733,-0.10332 0.164,-0.152 0.32266,-0.25032 0.68932,-0.44565 1.09999,-0.58599 0.41065,-0.14032 0.84931,-0.21166 1.31598,-0.214 0.53965,-0.0133 1.06031,0.10134 1.56198,0.344 0.50165,0.24267 0.77031,0.69333 0.80599,1.35198 6.6e-4,0.13734 -0.0127,0.31067 -0.04,0.51999 -0.0273,0.20934 -0.0727,0.49467 -0.136,0.85599 -0.032,0.17067 -0.064,0.35334 -0.096,0.54799 -0.032,0.19467 -0.064,0.38534 -0.096,0.572 -0.0327,0.191 -0.0673,0.377 -0.104,0.55799 -0.0367,0.181 -0.0713,0.363 -0.10399,0.54599 -0.0697,0.367 -0.14634,0.817 -0.23,1.34999 -0.0837,0.53299 -0.14034,1.01098 -0.17,1.43398 -0.0257,0.24466 -0.15434,0.44333 -0.386,0.59599 -0.23167,0.15266 -0.50833,0.23133 -0.82998,0.236 l -0.144,0 c -0.27534,6.6e-4 -0.50467,-0.0727 -0.68799,-0.22 -0.18334,-0.14733 -0.25267,-0.32466 -0.208,-0.53199 0.079,-0.24533 0.16499,-0.58666 0.258,-1.02399 0.093,-0.43733 0.19899,-1.03465 0.31799,-1.79198 l 0.192,-1.05598 c 0.073,-0.39199 0.13099,-0.74399 0.174,-1.05599 0.043,-0.31199 0.065,-0.58399 0.066,-0.81599 0.005,-0.38132 -0.0647,-0.65865 -0.208,-0.83199 -0.14334,-0.17332 -0.38867,-0.25865 -0.73599,-0.256 -0.31234,0.009 -0.63166,0.11534 -0.95799,0.32 -0.32633,0.20467 -0.60966,0.45533 -0.84999,0.75199 -0.24267,0.338 -0.42533,0.758 -0.54799,1.25998 -0.12267,0.502 -0.21733,0.978 -0.284,1.42799 l -0.28799,1.87197 c -0.0393,0.246 -0.0687,0.462 -0.088,0.64799 -0.0193,0.186 -0.0327,0.354 -0.04,0.504 -0.0267,0.23566 -0.15734,0.42432 -0.392,0.56599 -0.23466,0.14166 -0.50933,0.21433 -0.82399,0.218 l -0.12799,0 c -0.28167,-6.7e-4 -0.51433,-0.0753 -0.698,-0.224 -0.18366,-0.14866 -0.26033,-0.31933 -0.22999,-0.51199 0.079,-0.28567 0.14899,-0.58233 0.20999,-0.88999 0.061,-0.30766 0.119,-0.64033 0.174,-0.99799 z"
           style="font-style:oblique;font-variant:normal;font-weight:bold;font-stretch:normal;font-size:16px;font-family:'Raspoutine DemiBold';-inkscape-font-specification:'Raspoutine DemiBold';fill:#000080"
           id="path3285" />
      </g>
    </g>
    <g
       id="text4418"
       style="font-style:normal;font-weight:normal;font-size:18px;line-height:125%;font-family:Sans;letter-spacing:1.08000004px;word-spacing:0px;fill:#000000;fill-opacity:1;stroke:none;stroke-width:1px;stroke-linecap:butt;stroke-linejoin:miter;stroke-opacity:1">
      <path
         id="path3629"
         style="font-style:normal;font-variant:normal;font-weight:normal;font-stretch:normal;font-size:10px;font-family:'8514fix';-inkscape-font-specification:'8514fix';fill:#000080"
         d="m 565.58124,367.52817 6.16699,0 0,0.83008 -2.58789,0 0,6.45996 -0.99121,0 0,-6.45996 -2.58789,0 0,-0.83008 z" />
      <path
         id="path3631"
         style="font-style:normal;font-variant:normal;font-weight:normal;font-stretch:normal;font-size:10px;font-family:'8514fix';-inkscape-font-specification:'8514fix';fill:#000080"
         d="m 573.78526,367.52817 1.46973,0 1.86035,4.96094 1.87012,-4.96094 1.46972,0 0,7.29004 -0.96191,0 0,-6.40137 -1.87988,5 -0.99121,0 -1.87989,-5 0,6.40137 -0.95703,0 0,-7.29004 z" />
    </g>
  </g>
</svg>
